<svg width="25" height="25" viewBox="0 0 25 25" fill="none" xmlns="http://www.w3.org/2000/svg">
<path d="M17.6322 23.156L17.2544 21.2893C17.0025 21.1856 16.7666 21.0769 16.5466 20.9633C16.3266 20.8496 16.1008 20.7094 15.869 20.5426L14.0428 21.1026L12.7834 18.987L14.2317 17.7426C14.1898 17.4522 14.1688 17.1825 14.1688 16.9337C14.1688 16.6848 14.1898 16.4151 14.2317 16.1247L12.7834 14.8803L14.0428 12.7647L15.869 13.3247C16.0999 13.1588 16.3258 13.019 16.5466 12.9053C16.7674 12.7916 17.0034 12.6825 17.2544 12.578L17.6322 10.7113H20.1511L20.529 12.578C20.7809 12.6817 21.0172 12.7958 21.238 12.9202C21.4589 13.0447 21.6843 13.2002 21.9144 13.3869L23.7406 12.7647L25 14.9425L23.5516 16.187C23.5936 16.4359 23.6146 16.6951 23.6146 16.9648C23.6146 17.2344 23.5936 17.4937 23.5516 17.7426L25 18.987L23.7406 21.1026L21.9144 20.5426C21.6835 20.7085 21.458 20.8488 21.238 20.9633C21.0181 21.0777 20.7817 21.1864 20.529 21.2893L20.1511 23.156H17.6322ZM0 21.9115V18.427C0 17.7426 0.178421 17.0996 0.535264 16.4981C0.892107 15.8966 1.38539 15.4403 2.01511 15.1292C3.08564 14.5899 4.29261 14.1336 5.63602 13.7603C6.97943 13.3869 8.45928 13.2002 10.0756 13.2002H10.5164C10.6423 13.2002 10.7683 13.221 10.8942 13.2625C10.2855 14.7558 10.0336 16.2388 10.1385 17.7114C10.2435 19.1841 10.7473 20.5841 11.6499 21.9115H0ZM18.8917 19.4226C19.5844 19.4226 20.1776 19.1791 20.6713 18.6921C21.165 18.2051 21.4114 17.6189 21.4106 16.9337C21.4097 16.2484 21.1633 15.6626 20.6713 15.1765C20.1793 14.6903 19.5861 14.4464 18.8917 14.4447C18.1973 14.4431 17.6045 14.687 17.1133 15.1765C16.6222 15.666 16.3753 16.2517 16.3728 16.9337C16.3703 17.6156 16.6171 18.2018 17.1133 18.6921C17.6096 19.1824 18.2024 19.4259 18.8917 19.4226ZM10.0756 11.9558C8.69018 11.9558 7.5042 11.4684 6.51763 10.4935C5.53107 9.51868 5.03778 8.3468 5.03778 6.97788C5.03778 5.60897 5.53107 4.43709 6.51763 3.46225C7.5042 2.48742 8.69018 2 10.0756 2C11.461 2 12.6469 2.48742 13.6335 3.46225C14.6201 4.43709 15.1133 5.60897 15.1133 6.97788C15.1133 8.3468 14.6201 9.51868 13.6335 10.4935C12.6469 11.4684 11.461 11.9558 10.0756 11.9558Z" fill="#0069B4"/>
</svg>
