<svg width="25" height="25" viewBox="0 0 25 25" fill="none" xmlns="http://www.w3.org/2000/svg">
<g clip-path="url(#clip0_1458_1519)">
<path d="M21.4295 24.6275C21.4294 24.5601 21.4109 24.494 21.3759 24.4361C21.3408 24.3782 21.2905 24.3307 21.2302 24.2985C19.7196 23.5007 18.3417 22.2796 17.7357 21.6665C17.6457 21.5738 17.5255 21.5147 17.3959 21.4996C17.2664 21.4845 17.1355 21.5143 17.0259 21.5837C14.2172 23.3614 10.7974 23.3625 7.98816 21.5865C7.87754 21.5163 7.7454 21.4864 7.61469 21.5021C7.48398 21.5177 7.36299 21.5778 7.27273 21.672C6.67171 22.2905 5.30894 23.498 3.78879 24.2903C3.72835 24.3201 3.67668 24.3647 3.63869 24.4197C3.60069 24.4746 3.57764 24.5383 3.57171 24.6045C3.56718 24.6608 3.57589 24.7175 3.59717 24.77C3.61845 24.8225 3.65173 24.8696 3.69444 24.9074C3.73716 24.9453 3.78816 24.9731 3.84351 24.9885C3.89886 25.004 3.95709 25.0067 4.01369 24.9965C5.17723 24.7673 6.30171 24.2464 7.37318 23.6899C7.44191 23.6543 7.51832 23.6355 7.59599 23.6349C7.67367 23.6343 7.75036 23.652 7.81962 23.6866C9.27027 24.4112 10.8746 24.789 12.502 24.789C14.1293 24.789 15.7337 24.4112 17.1843 23.6866C17.2544 23.6517 17.3319 23.6338 17.4105 23.6344C17.489 23.6349 17.5663 23.654 17.6358 23.6899C18.7017 24.2382 19.8245 24.764 20.9841 24.9949C21.0389 25.0052 21.0954 25.0035 21.1494 24.9897C21.2034 24.9759 21.2536 24.9505 21.2964 24.9152C21.3392 24.88 21.3734 24.8358 21.3966 24.786C21.4198 24.7361 21.4314 24.6818 21.4306 24.627L21.4295 24.6275ZM24.8174 12.2227C24.6227 11.7627 24.2091 11.4063 23.6511 11.2166L22.3224 10.6967V6.14125C22.3224 5.21053 21.9461 4.31793 21.2763 3.65981C20.6065 3.00169 19.698 2.63196 18.7508 2.63196H16.965V2.1933C16.965 1.6116 16.7298 1.05373 16.3112 0.642404C15.8926 0.23108 15.3248 0 14.7328 0H10.2684C9.67635 0 9.10857 0.23108 8.68995 0.642404C8.27133 1.05373 8.03615 1.6116 8.03615 2.1933V2.63196H6.25037C5.30314 2.63196 4.3947 3.00169 3.72491 3.65981C3.05511 4.31793 2.67882 5.21053 2.67882 6.14125V10.7006L1.36293 11.2155C0.808224 11.3964 0.37908 11.7638 0.182644 12.2266C0.045921 12.5495 -0.110334 13.0491 0.110097 13.6774L0.115678 13.6939L2.71956 20.2431C2.81549 20.4837 2.98334 20.6901 3.20099 20.8352C3.41865 20.9802 3.67592 21.0571 3.93891 21.0557C3.96681 21.0557 3.99472 21.0557 4.02429 21.053C5.77212 20.9433 7.1494 20.106 8.07577 19.3197C9.39892 20.4421 10.9553 21.0557 12.5006 21.0557C14.0458 21.0557 15.5939 20.4416 16.917 19.3175C17.8428 20.1049 19.2218 20.9444 20.9691 21.053C21.2457 21.072 21.5213 21.004 21.7558 20.8586C21.9903 20.7133 22.1716 20.4982 22.2732 20.2447L24.8766 13.7197C25.0596 13.2761 25.0384 12.7458 24.8174 12.2227ZM13.2261 7.13975L13.1624 7.11782C12.7314 6.98456 12.2692 6.98456 11.8382 7.11782L11.8058 7.12769L4.77041 9.88193C4.73653 9.89519 4.69986 9.90009 4.66361 9.8962C4.62735 9.89231 4.59262 9.87976 4.56245 9.85963C4.53227 9.83951 4.50758 9.81242 4.49052 9.78075C4.47346 9.74908 4.46456 9.71378 4.4646 9.67795V6.14125C4.4646 5.67589 4.65274 5.22959 4.98764 4.90053C5.32254 4.57147 5.77676 4.38661 6.25037 4.38661H18.7508C19.2244 4.38661 19.6786 4.57147 20.0135 4.90053C20.3484 5.22959 20.5366 5.67589 20.5366 6.14125V9.67466C20.5366 9.71049 20.5277 9.74579 20.5107 9.77746C20.4936 9.80913 20.4689 9.83622 20.4387 9.85634C20.4086 9.87647 20.3738 9.88902 20.3376 9.89291C20.3013 9.8968 20.2646 9.8919 20.2308 9.87864L13.2261 7.13975Z" fill="#0069B4"/>
</g>
<defs>
<clipPath id="clip0_1458_1519">
<rect width="25" height="25" fill="white"/>
</clipPath>
</defs>
</svg>
