<svg width="25" height="25" viewBox="0 0 25 25" fill="none" xmlns="http://www.w3.org/2000/svg">
<path d="M12.5019 6.92661C12.5019 8.23323 11.9953 9.48633 11.0936 10.4103C10.1918 11.3342 8.96877 11.8532 7.69349 11.8532C6.41822 11.8532 5.19517 11.3342 4.29342 10.4103C3.39166 9.48633 2.88506 8.23323 2.88506 6.92661C2.88506 5.61999 3.39166 4.36689 4.29342 3.44297C5.19517 2.51905 6.41822 2 7.69349 2C8.96877 2 10.1918 2.51905 11.0936 3.44297C11.9953 4.36689 12.5019 5.61999 12.5019 6.92661ZM19.2337 11.8532C20.2539 11.8532 21.2324 11.438 21.9538 10.6988C22.6752 9.95971 23.0805 8.95723 23.0805 7.91193C23.0805 6.86664 22.6752 5.86416 21.9538 5.12502C21.2324 4.38589 20.2539 3.97064 19.2337 3.97064C18.2135 3.97064 17.2351 4.38589 16.5137 5.12502C15.7923 5.86416 15.387 6.86664 15.387 7.91193C15.387 8.95723 15.7923 9.95971 16.5137 10.6988C17.2351 11.438 18.2135 11.8532 19.2337 11.8532ZM17.3104 16.9651V16.7798C17.3104 15.7139 16.9729 14.6766 16.3487 13.8239H22.6439C23.9441 13.8239 25 14.9038 25 16.2379C25 16.2379 25 20.7211 19.2299 20.7211C18.0797 20.7211 17.1584 20.5438 16.4218 20.258C16.8794 19.3947 17.1713 18.4494 17.2815 17.4735C17.293 17.3513 17.3007 17.2469 17.3046 17.1602L17.3104 16.9651ZM15.387 16.7798C15.387 15.9959 15.083 15.244 14.542 14.6896C14.0009 14.1353 13.2671 13.8239 12.5019 13.8239H2.88506C2.11989 13.8239 1.38607 14.1353 0.845014 14.6896C0.303961 15.244 0 15.9959 0 16.7798V16.9276C0 16.9276 0 22.6918 7.69349 22.6918C15.0254 22.6918 15.3697 17.4577 15.387 16.9651V16.7798Z" fill="#0069B4"/>
</svg>
