<svg width="60" height="50" viewBox="0 0 60 50" fill="none" xmlns="http://www.w3.org/2000/svg">
<rect width="60" height="50" rx="10" fill="#0069B4"/>
<path d="M38.6227 34.0825C39.2648 33.9488 39.6486 33.2764 39.3287 32.7018C38.6238 31.4374 37.5141 30.3254 36.095 29.4786C34.2665 28.3875 32.025 27.7954 29.7218 27.7954C27.4187 27.7954 25.1772 28.3863 23.3486 29.4786C21.9295 30.3254 20.8198 31.4374 20.1149 32.7018C19.7951 33.2764 20.1789 33.9488 20.821 34.0825C26.6914 35.3061 32.7511 35.3061 38.6215 34.0825" fill="#F4F8FF"/>
<path d="M29.7213 26.632C32.9334 26.632 35.5373 24.0281 35.5373 20.816C35.5373 17.6039 32.9334 15 29.7213 15C26.5092 15 23.9053 17.6039 23.9053 20.816C23.9053 24.0281 26.5092 26.632 29.7213 26.632Z" fill="#F4F8FF"/>
</svg>
