<svg width="60" height="50" viewBox="0 0 60 50" fill="none" xmlns="http://www.w3.org/2000/svg">
<rect width="60" height="50" rx="10" fill="#0069B4"/>
<path d="M30.5 30.2381C30.9973 30.2381 31.4742 30.0374 31.8258 29.6802C32.1775 29.323 32.375 28.8385 32.375 28.3333C32.375 27.8282 32.1775 27.3437 31.8258 26.9865C31.4742 26.6293 30.9973 26.4286 30.5 26.4286C30.0027 26.4286 29.5258 26.6293 29.1742 26.9865C28.8225 27.3437 28.625 27.8282 28.625 28.3333C28.625 28.8385 28.8225 29.323 29.1742 29.6802C29.5258 30.0374 30.0027 30.2381 30.5 30.2381ZM36.125 21.6667C36.6223 21.6667 37.0992 21.8673 37.4508 22.2246C37.8025 22.5818 38 23.0663 38 23.5714V33.0952C38 33.6004 37.8025 34.0849 37.4508 34.4421C37.0992 34.7993 36.6223 35 36.125 35H24.875C24.3777 35 23.9008 34.7993 23.5492 34.4421C23.1975 34.0849 23 33.6004 23 33.0952V23.5714C23 23.0663 23.1975 22.5818 23.5492 22.2246C23.9008 21.8673 24.3777 21.6667 24.875 21.6667H25.8125V19.7619C25.8125 18.499 26.3064 17.2878 27.1854 16.3947C28.0645 15.5017 29.2568 15 30.5 15C31.1156 15 31.7251 15.1232 32.2938 15.3625C32.8625 15.6018 33.3793 15.9525 33.8146 16.3947C34.2498 16.8369 34.5951 17.3619 34.8307 17.9396C35.0663 18.5173 35.1875 19.1366 35.1875 19.7619V21.6667H36.125ZM30.5 16.9048C29.7541 16.9048 29.0387 17.2058 28.5113 17.7416C27.9838 18.2774 27.6875 19.0041 27.6875 19.7619V21.6667H33.3125V19.7619C33.3125 19.0041 33.0162 18.2774 32.4887 17.7416C31.9613 17.2058 31.2459 16.9048 30.5 16.9048Z" fill="#F4F8FF"/>
</svg>
