<svg width="17" height="17" viewBox="0 0 17 17" fill="none" xmlns="http://www.w3.org/2000/svg">
<path d="M16.5 7.3H0.5V4.5C0.5 3.4 1.4 2.5 2.5 2.5H14.5C15.6 2.5 16.5 3.4 16.5 4.5V7.3Z" fill="#EDF0FA"/>
<path d="M14.5 2H13V0.5C13 0.2 12.8 0 12.5 0C12.2 0 12 0.2 12 0.5V2H5V0.5C5 0.2 4.8 0 4.5 0C4.2 0 4 0.2 4 0.5V2H2.5C1.1 2 0 3.1 0 4.5V14.5C0 15.9 1.1 17 2.5 17H14.5C15.9 17 17 15.9 17 14.5V4.5C17 3.1 15.9 2 14.5 2ZM2.5 3H4V4.5C4 4.8 4.2 5 4.5 5C4.8 5 5 4.8 5 4.5V3H12V4.5C12 4.8 12.2 5 12.5 5C12.8 5 13 4.8 13 4.5V3H14.5C15.3 3 16 3.7 16 4.5V6.8H1V4.5C1 3.7 1.7 3 2.5 3ZM14.5 16H2.5C1.7 16 1 15.3 1 14.5V7.8H16V14.5C16 15.3 15.3 16 14.5 16Z" fill="#006AB5"/>
</svg>
