<svg width="25" height="25" viewBox="0 0 25 25" fill="none" xmlns="http://www.w3.org/2000/svg">
<path fill-rule="evenodd" clip-rule="evenodd" d="M4.74962 0C3.75516 0 2.80143 0.395088 2.09824 1.09835C1.39505 1.80161 1 2.75544 1 3.75V21.25C1 22.2446 1.39505 23.1984 2.09824 23.9017C2.80143 24.6049 3.75516 25 4.74962 25H12.2489C13.2433 25 14.197 24.6049 14.9002 23.9017C15.6034 23.1984 15.9985 22.2446 15.9985 21.25V3.75C15.9985 2.75544 15.6034 1.80161 14.9002 1.09835C14.197 0.395088 13.2433 0 12.2489 0H4.74962ZM17.6146 6.61625C17.8489 6.38191 18.1668 6.25027 18.4982 6.25027C18.8296 6.25027 19.1475 6.38191 19.3819 6.61625L24.3814 11.6163C24.6157 11.8507 24.7473 12.1685 24.7473 12.5C24.7473 12.8315 24.6157 13.1493 24.3814 13.3837L19.3819 18.3838C19.1461 18.6114 18.8304 18.7374 18.5027 18.7346C18.175 18.7317 17.8615 18.6003 17.6298 18.3685C17.398 18.1368 17.2666 17.8232 17.2637 17.4955C17.2609 17.1678 17.3869 16.852 17.6146 16.6163L20.4805 13.75H9.74911C9.41762 13.75 9.09971 13.6183 8.86531 13.3839C8.63092 13.1495 8.49924 12.8315 8.49924 12.5C8.49924 12.1685 8.63092 11.8505 8.86531 11.6161C9.09971 11.3817 9.41762 11.25 9.74911 11.25H20.4805L17.6146 8.38375C17.3802 8.14934 17.2486 7.83146 17.2486 7.5C17.2486 7.16854 17.3802 6.85066 17.6146 6.61625Z" fill="#0069B4"/>
</svg>
