<svg width="25" height="25" viewBox="0 0 25 25" fill="none" xmlns="http://www.w3.org/2000/svg">
<g clip-path="url(#clip0_1458_1520)">
<path fill-rule="evenodd" clip-rule="evenodd" d="M0.226856 3.30391C0.226856 3.10567 0.3251 2.7985 0.752017 2.40024C1.18251 1.99842 1.86486 1.58588 2.80265 1.2162C4.66929 0.482192 7.32368 0 10.3157 0C13.3041 0 15.9603 0.480406 17.8269 1.2162C18.7647 1.58588 19.4471 1.99842 19.8775 2.40024C20.3062 2.7985 20.4027 3.10567 20.4027 3.30391C20.4027 3.50214 20.3045 3.80932 19.8775 4.20757C19.4488 4.6094 18.7647 5.02194 17.8269 5.39162C15.9603 6.12741 13.3041 6.60603 10.3157 6.60603C7.32725 6.60603 4.66929 6.12741 2.80265 5.39162C1.86486 5.02194 1.18251 4.60761 0.750231 4.20757C0.321527 3.80932 0.225069 3.50214 0.225069 3.30391H0.226856ZM20.6313 6.44709C20.009 6.85671 19.3442 7.198 18.6486 7.46505C16.4604 8.32942 13.5149 8.8384 10.3175 8.8384C7.12005 8.8384 4.17271 8.32942 1.98454 7.46505C1.28839 7.19868 0.623024 6.85799 0 6.44887L0 11.0654C0.0714506 11.2315 0.210779 11.4351 0.475146 11.6762C0.91814 12.0798 1.62371 12.4941 2.5883 12.8656C4.4996 13.6014 7.21472 14.08 10.2692 14.0854C10.4069 13.5932 10.6484 13.1361 10.9775 12.745C11.3066 12.354 11.7157 12.0379 12.1772 11.8181C12.6387 11.5983 13.142 11.4799 13.6531 11.4708C14.1642 11.4617 14.6713 11.5622 15.1404 11.7655C15.2087 11.1612 15.4302 10.5844 15.7839 10.0897C16.1376 9.595 16.6118 9.19876 17.1615 8.93853C17.7112 8.6783 18.3183 8.5627 18.9252 8.60269C19.5321 8.64267 20.1187 8.83691 20.6296 9.16701V6.44709H20.6313ZM10.3157 16.3177H10.3764C10.614 16.9392 11.0266 17.5 11.5911 17.9143C10.9907 18.3567 10.5439 18.9759 10.3133 19.6849C10.0826 20.394 10.0797 21.1575 10.305 21.8683C4.61571 21.8647 0 19.886 0 17.4482V14.0872C0.532307 14.4122 1.13606 14.6997 1.78626 14.948C4.02445 15.8088 7.03788 16.3177 10.3157 16.3177ZM20.0294 12.1655C20.0294 11.8103 19.8882 11.4696 19.637 11.2184C19.3857 10.9672 19.045 10.8261 18.6897 10.8261C18.3344 10.8261 17.9936 10.9672 17.7424 11.2184C17.4911 11.4696 17.35 11.8103 17.35 12.1655V13.4871C16.67 13.6943 16.0467 14.0548 15.528 14.5408L14.383 13.88C14.0751 13.7024 13.7092 13.6543 13.3658 13.7464C13.0224 13.8385 12.7297 14.0632 12.5521 14.3711C12.3744 14.679 12.3264 15.0448 12.4185 15.3881C12.5106 15.7314 12.7354 16.024 13.0433 16.2017L14.1865 16.8606C14.025 17.5538 14.025 18.2748 14.1865 18.968L13.0433 19.6288C12.8908 19.7167 12.7572 19.8338 12.65 19.9734C12.5428 20.113 12.4641 20.2724 12.4185 20.4423C12.3729 20.6123 12.3612 20.7896 12.3841 20.9641C12.407 21.1386 12.4641 21.3069 12.5521 21.4593C12.64 21.6118 12.7572 21.7454 12.8968 21.8526C13.0364 21.9598 13.1958 22.0384 13.3658 22.084C13.5358 22.1296 13.7132 22.1413 13.8877 22.1184C14.0622 22.0955 14.2305 22.0384 14.383 21.9505L15.5262 21.2897C16.0389 21.7683 16.6605 22.1344 17.35 22.3434V23.6631C17.35 24.0184 17.4911 24.3591 17.7424 24.6102C17.9936 24.8614 18.3344 25.0026 18.6897 25.0026C19.045 25.0026 19.3857 24.8614 19.637 24.6102C19.8882 24.3591 20.0294 24.0184 20.0294 23.6631V22.3416C20.7189 22.1344 21.3405 21.7701 21.8532 21.2879L22.9981 21.9487C23.3057 22.1235 23.6699 22.1696 24.0113 22.0769C24.3527 21.9842 24.6436 21.7603 24.8205 21.454C24.9974 21.1477 25.0459 20.7839 24.9555 20.4419C24.8651 20.1 24.643 19.8077 24.3378 19.6288L23.1946 18.9698C23.3565 18.2761 23.3565 17.5544 23.1946 16.8606L24.3378 16.1999C24.643 16.021 24.8651 15.7287 24.9555 15.3867C25.0459 15.0448 24.9974 14.681 24.8205 14.3746C24.6436 14.0683 24.3527 13.8444 24.0113 13.7517C23.6699 13.6591 23.3057 13.7052 22.9981 13.88L21.8549 14.5408C21.3352 14.0543 20.7106 13.6938 20.0294 13.4871V12.1655ZM17.0106 16.941C16.8333 17.2471 16.7428 17.5957 16.7488 17.9494C16.7547 18.3031 16.857 18.6484 17.0445 18.9484C17.3839 19.4948 17.9912 19.8592 18.6843 19.8592H18.6968C19.0375 19.8579 19.3719 19.7672 19.6664 19.596C19.9609 19.4249 20.2053 19.1793 20.375 18.884C20.5447 18.5887 20.6338 18.2539 20.6333 17.9133C20.6328 17.5727 20.5427 17.2382 20.3722 16.9434C20.2016 16.6485 19.9565 16.4037 19.6615 16.2334C19.3665 16.0631 19.0318 15.9733 18.6912 15.9731C18.3505 15.9728 18.0157 16.0621 17.7205 16.232C17.4252 16.4019 17.1816 16.6464 17.0106 16.941Z" fill="#646F7B"/>
</g>
<defs>
<clipPath id="clip0_1458_1520">
<rect width="25" height="25" fill="white"/>
</clipPath>
</defs>
</svg>
