<svg width="91" height="25" viewBox="0 0 91 25" fill="none" xmlns="http://www.w3.org/2000/svg">
<g clip-path="url(#clip0_464_10570)">
<path d="M90.72 11.96C90.56 12.25 90.38 12.52 90.26 12.82C90.13 13.14 89.99 13.21 89.62 13.14C88.99 13.02 88.33 13.01 87.68 13C87.47 13 87.25 13.12 87.07 13.24C86.66 13.51 86.63 13.97 87.01 14.28C87.27 14.49 87.57 14.64 87.87 14.8C88.27 15.02 88.7 15.21 89.09 15.45C90.65 16.44 90.17 18.2 89.21 18.93C88.54 19.45 87.77 19.69 86.95 19.77C85.68 19.9 84.43 19.79 83.25 19.21C83.53 18.75 83.79 18.32 83.97 18.01C84.93 18.12 85.82 18.22 86.72 18.31C86.84 18.32 86.97 18.28 87.09 18.24C87.49 18.12 87.85 17.92 87.9 17.46C87.95 17.03 87.64 16.79 87.31 16.61C86.85 16.36 86.36 16.15 85.9 15.89C85.17 15.47 84.54 14.97 84.57 14.01C84.6 13.01 85.17 12.37 86.01 11.98C87.55 11.26 89.13 11.32 90.71 11.86C90.72 11.89 90.72 11.93 90.72 11.96Z" fill="white"/>
<path d="M47.25 16.27C46.1 16.27 45 16.26 43.9 16.29C43.8 16.29 43.64 16.49 43.61 16.62C43.36 17.63 43.14 18.64 42.9 19.67C42.22 19.67 41.56 19.67 40.83 19.67C41.45 16.98 42.06 14.32 42.68 11.62C43.36 11.62 44.02 11.62 44.75 11.62C44.52 12.64 44.29 13.65 44.05 14.71C45.25 14.71 46.41 14.71 47.61 14.71C47.85 13.69 48.09 12.65 48.33 11.61C49.03 11.61 49.69 11.61 50.41 11.61C49.79 14.3 49.18 16.97 48.56 19.67C47.88 19.67 47.22 19.67 46.5 19.67C46.75 18.54 46.99 17.43 47.25 16.27Z" fill="white"/>
<path d="M64.51 15.91C65.38 16.98 65.47 18.38 66.02 19.67C65.23 19.67 64.52 19.67 63.79 19.67C63.57 18.9 63.35 18.11 63.11 17.34C62.9 16.65 62.12 16.25 61.44 16.51C61.33 16.55 61.25 16.74 61.22 16.88C60.99 17.81 60.78 18.74 60.56 19.68C59.9 19.68 59.26 19.68 58.57 19.68C58.59 19.51 58.6 19.35 58.63 19.21C59.16 16.88 59.71 14.55 60.23 12.21C60.31 11.87 60.45 11.68 60.82 11.68C62.03 11.69 63.24 11.66 64.45 11.69C64.8 11.7 65.17 11.85 65.49 12.01C66.83 12.65 67.02 14.2 65.86 15.13C65.46 15.45 64.97 15.65 64.51 15.91ZM61.59 15.26C62.2 15.21 62.72 15.22 63.21 15.11C63.53 15.04 63.87 14.85 64.12 14.62C64.74 14.04 64.53 13.21 63.71 13.01C63.27 12.9 62.8 12.93 62.34 12.93C62.25 12.93 62.11 13.06 62.09 13.15C61.91 13.81 61.77 14.48 61.59 15.26Z" fill="white"/>
<path d="M32.82 11.6099C32.83 11.6699 32.85 11.6999 32.84 11.7299C32.62 13.0599 32.62 13.0599 31.26 13.0599C30.57 13.0599 29.89 13.0699 29.2 13.0599C28.95 13.0599 28.83 13.1399 28.78 13.3899C28.7 13.8399 28.58 14.2799 28.47 14.7999C29.64 14.7999 30.75 14.7999 31.93 14.7999C31.81 15.3199 31.71 15.7599 31.6 16.2399C30.6 16.2399 29.61 16.2599 28.62 16.2299C28.25 16.2199 28.07 16.3099 28.01 16.6999C27.94 17.1899 27.8 17.6599 27.68 18.1999C28.97 18.1999 30.23 18.1999 31.56 18.1999C31.45 18.6799 31.38 19.0999 31.26 19.4999C31.24 19.5799 31.07 19.6699 30.97 19.6699C29.07 19.6799 27.17 19.6799 25.2 19.6799C25.39 18.8399 25.58 18.0399 25.76 17.2499C26.16 15.5099 26.57 13.7699 26.95 12.0199C27.03 11.6699 27.17 11.5699 27.52 11.5699C29.15 11.5899 30.78 11.5799 32.41 11.5799C32.54 11.5899 32.68 11.6099 32.82 11.6099Z" fill="white"/>
<path d="M83.67 11.91C83.5 12.28 83.37 12.65 83.17 12.97C83.1 13.08 82.88 13.16 82.74 13.15C82.05 13.12 81.35 13.03 80.66 13.01C80.46 13.01 80.23 13.14 80.05 13.26C79.66 13.53 79.64 13.97 80 14.27C80.24 14.47 80.54 14.61 80.81 14.77C81.24 15.01 81.71 15.2 82.11 15.48C83.37 16.34 83.42 17.91 82.25 18.9C81.59 19.45 80.79 19.7 79.96 19.78C78.69 19.91 77.44 19.81 76.25 19.22C76.53 18.76 76.79 18.33 77.02 17.95C77.73 18.09 78.41 18.28 79.1 18.33C79.54 18.36 80.03 18.26 80.44 18.09C81.05 17.82 81.08 17.19 80.55 16.79C80.28 16.59 79.97 16.46 79.68 16.3C79.29 16.09 78.87 15.91 78.51 15.65C77.31 14.81 77.26 13.35 78.39 12.41C79 11.9 79.72 11.68 80.49 11.55C81.52 11.36 82.92 11.51 83.67 11.91Z" fill="white"/>
<path d="M41.1 11.81C40.91 12.23 40.83 12.76 40.52 12.96C40.24 13.14 39.72 12.97 39.31 12.94C38.45 12.87 37.62 12.97 36.84 13.36C35.71 13.94 35.05 15.15 35.16 16.41C35.25 17.43 35.97 18.2 37.08 18.28C37.85 18.34 38.63 18.21 39.41 18.16C39.55 18.15 39.68 18.11 39.88 18.07C39.77 18.54 39.69 18.96 39.57 19.37C39.54 19.47 39.39 19.59 39.28 19.62C38.01 19.88 36.74 19.95 35.48 19.6C33.3 19 32.37 17.01 33.19 14.78C33.6 13.68 34.35 12.88 35.37 12.33C37.07 11.42 38.86 11.29 40.72 11.68C40.85 11.7 40.96 11.76 41.1 11.81Z" fill="white"/>
<path d="M57.57 18.07C57.46 18.57 57.38 18.98 57.26 19.39C57.23 19.48 57.1 19.59 56.99 19.61C55.69 19.87 54.39 19.95 53.1 19.57C51 18.94 50.1 17.08 50.84 14.89C51.24 13.71 52.03 12.86 53.12 12.29C54.79 11.41 56.56 11.28 58.38 11.67C58.5 11.7 58.62 11.75 58.74 11.79C58.73 11.86 58.74 11.91 58.72 11.95C58.25 13.1 58.25 13.1 57.02 12.95C56.21 12.86 55.42 12.95 54.68 13.3C53.46 13.88 52.86 14.87 52.85 16.2C52.84 17.34 53.57 18.18 54.75 18.28C55.53 18.34 56.33 18.21 57.12 18.16C57.24 18.15 57.35 18.12 57.57 18.07Z" fill="white"/>
<path d="M71.2 20.14C71.57 18.92 71.91 17.73 72.3 16.56C72.44 16.14 72.85 15.98 73.26 15.94C74.29 15.85 75.33 15.8 76.36 15.73C76.42 15.73 76.48 15.75 76.54 15.76C76.76 17.59 74.59 20.66 71.2 20.14Z" fill="white"/>
<path d="M72.41 10.81C72.06 11.95 71.75 13.07 71.39 14.16C71.25 14.57 70.85 14.75 70.44 14.79C69.43 14.88 68.41 14.93 67.39 15C67.33 15 67.27 14.98 67.21 14.98C67.24 12.57 69.81 10.39 72.41 10.81Z" fill="white"/>
<path d="M70.46 19.99C68.34 19.42 66.98 17.11 67.2 15.65C67.97 15.69 68.74 15.72 69.52 15.76C69.77 15.77 70.03 15.8 70.28 15.83C70.69 15.87 71.05 16.18 71 16.58C70.86 17.71 70.65 18.83 70.46 19.99Z" fill="white"/>
<path d="M73.12 10.9399C75.1 11.3499 76.62 13.4599 76.54 15.0899C75.88 15.0599 75.22 15.0299 74.56 14.9899C74.21 14.9699 73.86 14.9299 73.51 14.9099C72.89 14.8799 72.54 14.5299 72.63 13.9299C72.76 12.9299 72.95 11.9499 73.12 10.9399Z" fill="white"/>
<path d="M24.8 9.58C24.72 9.44 24.6 9.37 24.37 9.38C23.54 9.4 22.71 9.4 21.88 9.38C21.57 9.37 21.43 9.46 21.35 9.79C21.02 11.26 20.65 12.72 20.31 14.19C19.91 15.88 19.52 17.57 19.11 19.25C19.07 19.42 18.9 19.69 18.79 19.7C17.72 19.73 16.65 19.72 15.49 19.72C15.91 17.95 16.32 16.26 16.73 14.56C17.13 12.86 17.53 11.17 17.95 9.39C16.4 9.39 14.93 9.39 13.37 9.39C13.53 8.71 13.69 8.1 13.82 7.49C13.9 7.1 14.06 6.94 14.49 6.94C17.45 6.96 20.41 6.95 23.38 6.95C23.53 6.95 23.68 6.95 23.86 6.95C21.79 2.84 17.51 0 12.57 0C5.63 0 0 5.6 0 12.51C0 19.42 5.63 25.02 12.57 25.02C19.51 25.02 25.14 19.42 25.14 12.51C25.14 11.5 25.02 10.52 24.8 9.58Z" fill="white"/>
</g>
<defs>
<clipPath id="clip0_464_10570">
<rect width="90.72" height="25.01" fill="white"/>
</clipPath>
</defs>
</svg>
