<svg width="194" height="25" viewBox="0 0 194 25" fill="none" xmlns="http://www.w3.org/2000/svg">
<path d="M4.914 17.53C5.264 17.53 5.558 17.488 5.796 17.404C6.034 17.32 6.223 17.208 6.363 17.068C6.50767 16.928 6.61033 16.7647 6.671 16.578C6.73633 16.3913 6.769 16.193 6.769 15.983C6.769 15.7637 6.734 15.5677 6.664 15.395C6.594 15.2177 6.48433 15.0683 6.335 14.947C6.18567 14.821 5.992 14.7253 5.754 14.66C5.52067 14.5947 5.23833 14.562 4.907 14.562H3.01V17.53H4.914ZM3.01 10.334V13.26H4.508C5.152 13.26 5.63733 13.1433 5.964 12.91C6.29533 12.6767 6.461 12.3057 6.461 11.797C6.461 11.2697 6.31167 10.894 6.013 10.67C5.71433 10.446 5.24767 10.334 4.613 10.334H3.01ZM4.613 8.878C5.27567 8.878 5.84267 8.941 6.314 9.067C6.78533 9.193 7.17033 9.37267 7.469 9.606C7.77233 9.83933 7.994 10.1217 8.134 10.453C8.274 10.7843 8.344 11.1577 8.344 11.573C8.344 11.811 8.309 12.0397 8.239 12.259C8.169 12.4737 8.05933 12.6767 7.91 12.868C7.76533 13.0547 7.57867 13.225 7.35 13.379C7.126 13.533 6.85767 13.6637 6.545 13.771C7.93567 14.0837 8.631 14.835 8.631 16.025C8.631 16.4543 8.54933 16.851 8.386 17.215C8.22267 17.579 7.98467 17.894 7.672 18.16C7.35933 18.4213 6.97433 18.6267 6.517 18.776C6.05967 18.9253 5.537 19 4.949 19H1.127V8.878H4.613ZM23.5051 8.878L20.3621 19H18.6611L16.4491 12.084C16.3885 11.916 16.3325 11.7107 16.2811 11.468C16.2531 11.5847 16.2251 11.6943 16.1971 11.797C16.1691 11.8997 16.1388 11.9953 16.1061 12.084L13.8731 19H12.1651L9.02912 8.878H10.6041C10.7675 8.878 10.9028 8.91767 11.0101 8.997C11.1221 9.07167 11.1968 9.17433 11.2341 9.305L12.9561 15.36C12.9935 15.5093 13.0285 15.6727 13.0611 15.85C13.0985 16.0227 13.1358 16.2047 13.1731 16.396C13.2105 16.2 13.2501 16.0157 13.2921 15.843C13.3388 15.6703 13.3878 15.5093 13.4391 15.36L15.4271 9.305C15.4645 9.19767 15.5368 9.09967 15.6441 9.011C15.7561 8.92233 15.8915 8.878 16.0501 8.878H16.6031C16.7665 8.878 16.8995 8.91767 17.0021 8.997C17.1048 9.07633 17.1818 9.179 17.2331 9.305L19.2141 15.36C19.3121 15.6493 19.4008 15.983 19.4801 16.361C19.5408 15.9923 19.6085 15.6587 19.6831 15.36L21.4051 9.305C21.4331 9.18833 21.5031 9.088 21.6151 9.004C21.7318 8.92 21.8695 8.878 22.0281 8.878H23.5051ZM35.5561 8.878V19H33.8971V12.462C33.8971 12.2007 33.9111 11.9183 33.9391 11.615L30.8801 17.362C30.7354 17.6373 30.5137 17.775 30.2151 17.775H29.9491C29.6504 17.775 29.4287 17.6373 29.2841 17.362L26.1901 11.594C26.2041 11.748 26.2157 11.8997 26.2251 12.049C26.2344 12.1983 26.2391 12.336 26.2391 12.462V19H24.5801V8.878H26.0011C26.0851 8.878 26.1574 8.88033 26.2181 8.885C26.2787 8.88967 26.3324 8.90133 26.3791 8.92C26.4304 8.93867 26.4747 8.969 26.5121 9.011C26.5541 9.053 26.5937 9.109 26.6311 9.179L29.6621 14.8C29.7414 14.9493 29.8137 15.1033 29.8791 15.262C29.9491 15.4207 30.0167 15.584 30.0821 15.752C30.1474 15.5793 30.2151 15.4137 30.2851 15.255C30.3551 15.0917 30.4297 14.9353 30.5091 14.786L33.4981 9.179C33.5354 9.109 33.5751 9.053 33.6171 9.011C33.6591 8.969 33.7034 8.93867 33.7501 8.92C33.8014 8.90133 33.8574 8.88967 33.9181 8.885C33.9787 8.88033 34.0511 8.878 34.1351 8.878H35.5561ZM43.0364 10.719C42.9804 10.817 42.9198 10.8893 42.8544 10.936C42.7938 10.978 42.7168 10.999 42.6234 10.999C42.5254 10.999 42.4181 10.964 42.3014 10.894C42.1894 10.8193 42.0541 10.7377 41.8954 10.649C41.7368 10.5603 41.5501 10.481 41.3354 10.411C41.1254 10.3363 40.8758 10.299 40.5864 10.299C40.3251 10.299 40.0964 10.3317 39.9004 10.397C39.7044 10.4577 39.5388 10.544 39.4034 10.656C39.2728 10.768 39.1748 10.9033 39.1094 11.062C39.0441 11.216 39.0114 11.3863 39.0114 11.573C39.0114 11.811 39.0768 12.0093 39.2074 12.168C39.3428 12.3267 39.5201 12.462 39.7394 12.574C39.9588 12.686 40.2084 12.7863 40.4884 12.875C40.7684 12.9637 41.0554 13.0593 41.3494 13.162C41.6434 13.26 41.9304 13.3767 42.2104 13.512C42.4904 13.6427 42.7401 13.8107 42.9594 14.016C43.1788 14.2167 43.3538 14.464 43.4844 14.758C43.6198 15.052 43.6874 15.409 43.6874 15.829C43.6874 16.2863 43.6081 16.7157 43.4494 17.117C43.2954 17.5137 43.0668 17.8613 42.7634 18.16C42.4648 18.454 42.0984 18.6873 41.6644 18.86C41.2304 19.028 40.7334 19.112 40.1734 19.112C39.8514 19.112 39.5341 19.0793 39.2214 19.014C38.9088 18.9533 38.6078 18.8647 38.3184 18.748C38.0338 18.6313 37.7654 18.4913 37.5134 18.328C37.2614 18.1647 37.0374 17.9827 36.8414 17.782L37.3944 16.879C37.4411 16.8137 37.5018 16.76 37.5764 16.718C37.6511 16.6713 37.7304 16.648 37.8144 16.648C37.9311 16.648 38.0571 16.697 38.1924 16.795C38.3278 16.8883 38.4888 16.9933 38.6754 17.11C38.8621 17.2267 39.0791 17.334 39.3264 17.432C39.5784 17.5253 39.8794 17.572 40.2294 17.572C40.7661 17.572 41.1814 17.446 41.4754 17.194C41.7694 16.9373 41.9164 16.571 41.9164 16.095C41.9164 15.829 41.8488 15.612 41.7134 15.444C41.5828 15.276 41.4078 15.136 41.1884 15.024C40.9691 14.9073 40.7194 14.8093 40.4394 14.73C40.1594 14.6507 39.8748 14.5643 39.5854 14.471C39.2961 14.3777 39.0114 14.2657 38.7314 14.135C38.4514 14.0043 38.2018 13.834 37.9824 13.624C37.7631 13.414 37.5858 13.1527 37.4504 12.84C37.3198 12.5227 37.2544 12.133 37.2544 11.671C37.2544 11.3023 37.3268 10.943 37.4714 10.593C37.6208 10.243 37.8354 9.93267 38.1154 9.662C38.3954 9.39133 38.7408 9.17433 39.1514 9.011C39.5621 8.84767 40.0334 8.766 40.5654 8.766C41.1628 8.766 41.7134 8.85933 42.2174 9.046C42.7214 9.23267 43.1508 9.494 43.5054 9.83L43.0364 10.719ZM53.2815 15.178L52.0495 11.811C51.9888 11.6617 51.9258 11.4843 51.8605 11.279C51.7952 11.0737 51.7298 10.852 51.6645 10.614C51.6038 10.852 51.5408 11.076 51.4755 11.286C51.4102 11.4913 51.3472 11.671 51.2865 11.825L50.0615 15.178H53.2815ZM56.6065 19H55.1505C54.9872 19 54.8542 18.9603 54.7515 18.881C54.6488 18.797 54.5718 18.6943 54.5205 18.573L53.7645 16.508H49.5715L48.8155 18.573C48.7782 18.6803 48.7058 18.7783 48.5985 18.867C48.4912 18.9557 48.3582 19 48.1995 19H46.7295L50.7125 8.878H52.6305L56.6065 19ZM59.3762 19H57.4862V8.878H59.3762V19ZM73.6987 13.939C73.6987 14.681 73.5751 15.3623 73.3277 15.983C73.0804 16.6037 72.7327 17.138 72.2847 17.586C71.8367 18.034 71.2977 18.3817 70.6677 18.629C70.0377 18.8763 69.3377 19 68.5677 19H64.7107V8.878H68.5677C69.3377 8.878 70.0377 9.004 70.6677 9.256C71.2977 9.50333 71.8367 9.851 72.2847 10.299C72.7327 10.7423 73.0804 11.2743 73.3277 11.895C73.5751 12.5157 73.6987 13.197 73.6987 13.939ZM71.7667 13.939C71.7667 13.3837 71.6921 12.8867 71.5427 12.448C71.3981 12.0047 71.1857 11.6313 70.9057 11.328C70.6304 11.02 70.2944 10.7843 69.8977 10.621C69.5057 10.4577 69.0624 10.376 68.5677 10.376H66.6007V17.502H68.5677C69.0624 17.502 69.5057 17.4203 69.8977 17.257C70.2944 17.0937 70.6304 16.8603 70.9057 16.557C71.1857 16.249 71.3981 15.8757 71.5427 15.437C71.6921 14.9937 71.7667 14.4943 71.7667 13.939ZM78.5364 15.934C78.0371 15.9573 77.6171 16.0017 77.2764 16.067C76.9357 16.1277 76.6627 16.207 76.4574 16.305C76.2521 16.403 76.1051 16.5173 76.0164 16.648C75.9277 16.7787 75.8834 16.921 75.8834 17.075C75.8834 17.3783 75.9721 17.5953 76.1494 17.726C76.3314 17.8567 76.5671 17.922 76.8564 17.922C77.2111 17.922 77.5167 17.859 77.7734 17.733C78.0347 17.6023 78.2891 17.4063 78.5364 17.145V15.934ZM74.5744 12.819C75.4004 12.063 76.3944 11.685 77.5564 11.685C77.9764 11.685 78.3521 11.755 78.6834 11.895C79.0147 12.0303 79.2947 12.2217 79.5234 12.469C79.7521 12.7117 79.9247 13.0033 80.0414 13.344C80.1627 13.6847 80.2234 14.058 80.2234 14.464V19H79.4394C79.2761 19 79.1501 18.9767 79.0614 18.93C78.9727 18.8787 78.9027 18.7783 78.8514 18.629L78.6974 18.111C78.5154 18.2743 78.3381 18.419 78.1654 18.545C77.9927 18.6663 77.8131 18.769 77.6264 18.853C77.4397 18.937 77.2391 19 77.0244 19.042C76.8144 19.0887 76.5811 19.112 76.3244 19.112C76.0211 19.112 75.7411 19.0723 75.4844 18.993C75.2277 18.909 75.0061 18.7853 74.8194 18.622C74.6327 18.4587 74.4881 18.2557 74.3854 18.013C74.2827 17.7703 74.2314 17.488 74.2314 17.166C74.2314 16.984 74.2617 16.8043 74.3224 16.627C74.3831 16.445 74.4811 16.2723 74.6164 16.109C74.7564 15.9457 74.9361 15.7917 75.1554 15.647C75.3747 15.5023 75.6431 15.3763 75.9604 15.269C76.2824 15.1617 76.6557 15.0753 77.0804 15.01C77.5051 14.94 77.9904 14.898 78.5364 14.884V14.464C78.5364 13.9833 78.4337 13.6287 78.2284 13.4C78.0231 13.1667 77.7267 13.05 77.3394 13.05C77.0594 13.05 76.8261 13.0827 76.6394 13.148C76.4574 13.2133 76.2964 13.288 76.1564 13.372C76.0164 13.4513 75.8881 13.5237 75.7714 13.589C75.6594 13.6543 75.5334 13.687 75.3934 13.687C75.2721 13.687 75.1694 13.6567 75.0854 13.596C75.0014 13.5307 74.9337 13.456 74.8824 13.372L74.5744 12.819ZM84.0778 19.112C83.4524 19.112 82.9718 18.937 82.6358 18.587C82.3044 18.2323 82.1388 17.7447 82.1388 17.124V13.113H81.4038C81.3104 13.113 81.2311 13.0827 81.1658 13.022C81.1004 12.9613 81.0678 12.8703 81.0678 12.749V12.063L82.2228 11.874L82.5868 9.914C82.6101 9.82067 82.6544 9.74833 82.7198 9.697C82.7851 9.64567 82.8691 9.62 82.9718 9.62H83.8678V11.881H85.7858V13.113H83.8678V17.005C83.8678 17.229 83.9214 17.404 84.0288 17.53C84.1408 17.656 84.2924 17.719 84.4838 17.719C84.5911 17.719 84.6798 17.7073 84.7498 17.684C84.8244 17.656 84.8874 17.628 84.9388 17.6C84.9948 17.572 85.0438 17.5463 85.0858 17.523C85.1278 17.495 85.1698 17.481 85.2118 17.481C85.2631 17.481 85.3051 17.495 85.3378 17.523C85.3704 17.5463 85.4054 17.5837 85.4428 17.635L85.9608 18.475C85.7088 18.685 85.4194 18.8437 85.0928 18.951C84.7661 19.0583 84.4278 19.112 84.0778 19.112ZM90.5188 15.934C90.0194 15.9573 89.5994 16.0017 89.2588 16.067C88.9181 16.1277 88.6451 16.207 88.4398 16.305C88.2344 16.403 88.0874 16.5173 87.9988 16.648C87.9101 16.7787 87.8658 16.921 87.8658 17.075C87.8658 17.3783 87.9544 17.5953 88.1318 17.726C88.3138 17.8567 88.5494 17.922 88.8388 17.922C89.1934 17.922 89.4991 17.859 89.7558 17.733C90.0171 17.6023 90.2714 17.4063 90.5188 17.145V15.934ZM86.5568 12.819C87.3828 12.063 88.3768 11.685 89.5388 11.685C89.9588 11.685 90.3344 11.755 90.6658 11.895C90.9971 12.0303 91.2771 12.2217 91.5058 12.469C91.7344 12.7117 91.9071 13.0033 92.0238 13.344C92.1451 13.6847 92.2058 14.058 92.2058 14.464V19H91.4218C91.2584 19 91.1324 18.9767 91.0438 18.93C90.9551 18.8787 90.8851 18.7783 90.8338 18.629L90.6798 18.111C90.4978 18.2743 90.3204 18.419 90.1478 18.545C89.9751 18.6663 89.7954 18.769 89.6088 18.853C89.4221 18.937 89.2214 19 89.0068 19.042C88.7968 19.0887 88.5634 19.112 88.3068 19.112C88.0034 19.112 87.7234 19.0723 87.4668 18.993C87.2101 18.909 86.9884 18.7853 86.8018 18.622C86.6151 18.4587 86.4704 18.2557 86.3678 18.013C86.2651 17.7703 86.2138 17.488 86.2138 17.166C86.2138 16.984 86.2441 16.8043 86.3048 16.627C86.3654 16.445 86.4634 16.2723 86.5988 16.109C86.7388 15.9457 86.9184 15.7917 87.1378 15.647C87.3571 15.5023 87.6254 15.3763 87.9428 15.269C88.2648 15.1617 88.6381 15.0753 89.0628 15.01C89.4874 14.94 89.9728 14.898 90.5188 14.884V14.464C90.5188 13.9833 90.4161 13.6287 90.2108 13.4C90.0054 13.1667 89.7091 13.05 89.3218 13.05C89.0418 13.05 88.8084 13.0827 88.6218 13.148C88.4398 13.2133 88.2788 13.288 88.1388 13.372C87.9988 13.4513 87.8704 13.5237 87.7538 13.589C87.6418 13.6543 87.5158 13.687 87.3758 13.687C87.2544 13.687 87.1518 13.6567 87.0678 13.596C86.9838 13.5307 86.9161 13.456 86.8648 13.372L86.5568 12.819ZM102.059 15.178L100.827 11.811C100.766 11.6617 100.703 11.4843 100.638 11.279C100.572 11.0737 100.507 10.852 100.442 10.614C100.381 10.852 100.318 11.076 100.253 11.286C100.187 11.4913 100.124 11.671 100.064 11.825L98.8386 15.178H102.059ZM105.384 19H103.928C103.764 19 103.631 18.9603 103.529 18.881C103.426 18.797 103.349 18.6943 103.298 18.573L102.542 16.508H98.3486L97.5926 18.573C97.5552 18.6803 97.4829 18.7783 97.3756 18.867C97.2682 18.9557 97.1352 19 96.9766 19H95.5066L99.4896 8.878H101.408L105.384 19ZM107.607 12.7C107.752 12.5553 107.904 12.4223 108.062 12.301C108.226 12.175 108.396 12.07 108.573 11.986C108.755 11.8973 108.949 11.8297 109.154 11.783C109.36 11.7317 109.584 11.706 109.826 11.706C110.218 11.706 110.566 11.7737 110.869 11.909C111.173 12.0397 111.425 12.2263 111.625 12.469C111.831 12.707 111.985 12.994 112.087 13.33C112.195 13.6613 112.248 14.0277 112.248 14.429V19H110.519V14.429C110.519 13.9903 110.419 13.652 110.218 13.414C110.018 13.1713 109.712 13.05 109.301 13.05C109.003 13.05 108.723 13.1177 108.461 13.253C108.2 13.3883 107.953 13.5727 107.719 13.806V19H105.99V11.818H107.047C107.271 11.818 107.418 11.923 107.488 12.133L107.607 12.7ZM117.519 15.934C117.019 15.9573 116.599 16.0017 116.259 16.067C115.918 16.1277 115.645 16.207 115.44 16.305C115.234 16.403 115.087 16.5173 114.999 16.648C114.91 16.7787 114.866 16.921 114.866 17.075C114.866 17.3783 114.954 17.5953 115.132 17.726C115.314 17.8567 115.549 17.922 115.839 17.922C116.193 17.922 116.499 17.859 116.756 17.733C117.017 17.6023 117.271 17.4063 117.519 17.145V15.934ZM113.557 12.819C114.383 12.063 115.377 11.685 116.539 11.685C116.959 11.685 117.334 11.755 117.666 11.895C117.997 12.0303 118.277 12.2217 118.506 12.469C118.734 12.7117 118.907 13.0033 119.024 13.344C119.145 13.6847 119.206 14.058 119.206 14.464V19H118.422C118.258 19 118.132 18.9767 118.044 18.93C117.955 18.8787 117.885 18.7783 117.834 18.629L117.68 18.111C117.498 18.2743 117.32 18.419 117.148 18.545C116.975 18.6663 116.795 18.769 116.609 18.853C116.422 18.937 116.221 19 116.007 19.042C115.797 19.0887 115.563 19.112 115.307 19.112C115.003 19.112 114.723 19.0723 114.467 18.993C114.21 18.909 113.988 18.7853 113.802 18.622C113.615 18.4587 113.47 18.2557 113.368 18.013C113.265 17.7703 113.214 17.488 113.214 17.166C113.214 16.984 113.244 16.8043 113.305 16.627C113.365 16.445 113.463 16.2723 113.599 16.109C113.739 15.9457 113.918 15.7917 114.138 15.647C114.357 15.5023 114.625 15.3763 114.943 15.269C115.265 15.1617 115.638 15.0753 116.063 15.01C116.487 14.94 116.973 14.898 117.519 14.884V14.464C117.519 13.9833 117.416 13.6287 117.211 13.4C117.005 13.1667 116.709 13.05 116.322 13.05C116.042 13.05 115.808 13.0827 115.622 13.148C115.44 13.2133 115.279 13.288 115.139 13.372C114.999 13.4513 114.87 13.5237 114.754 13.589C114.642 13.6543 114.516 13.687 114.376 13.687C114.254 13.687 114.152 13.6567 114.068 13.596C113.984 13.5307 113.916 13.456 113.865 13.372L113.557 12.819ZM122.416 8.598V19H120.687V8.598H122.416ZM130.495 11.818L126.582 20.974C126.53 21.0953 126.463 21.1863 126.379 21.247C126.299 21.3123 126.176 21.345 126.008 21.345H124.72L126.064 18.461L123.159 11.818H124.678C124.813 11.818 124.918 11.8507 124.993 11.916C125.072 11.9813 125.13 12.056 125.168 12.14L126.694 15.864C126.745 15.99 126.787 16.116 126.82 16.242C126.857 16.368 126.892 16.4963 126.925 16.627C126.967 16.4963 127.009 16.368 127.051 16.242C127.093 16.1113 127.139 15.983 127.191 15.857L128.633 12.14C128.67 12.0467 128.731 11.9697 128.815 11.909C128.903 11.8483 129.001 11.818 129.109 11.818H130.495ZM135.417 13.218C135.37 13.2927 135.321 13.3463 135.27 13.379C135.219 13.407 135.153 13.421 135.074 13.421C134.99 13.421 134.899 13.3977 134.801 13.351C134.708 13.3043 134.598 13.253 134.472 13.197C134.346 13.1363 134.201 13.0827 134.038 13.036C133.879 12.9893 133.69 12.966 133.471 12.966C133.13 12.966 132.862 13.0383 132.666 13.183C132.475 13.3277 132.379 13.5167 132.379 13.75C132.379 13.904 132.428 14.0347 132.526 14.142C132.629 14.2447 132.762 14.3357 132.925 14.415C133.093 14.4943 133.282 14.5667 133.492 14.632C133.702 14.6927 133.914 14.7603 134.129 14.835C134.348 14.9097 134.563 14.996 134.773 15.094C134.983 15.1873 135.17 15.3087 135.333 15.458C135.501 15.6027 135.634 15.7777 135.732 15.983C135.835 16.1883 135.886 16.4357 135.886 16.725C135.886 17.0703 135.823 17.39 135.697 17.684C135.576 17.9733 135.394 18.2253 135.151 18.44C134.908 18.65 134.607 18.8157 134.248 18.937C133.893 19.0537 133.483 19.112 133.016 19.112C132.769 19.112 132.526 19.0887 132.288 19.042C132.055 19 131.828 18.9393 131.609 18.86C131.394 18.7807 131.194 18.6873 131.007 18.58C130.825 18.4727 130.664 18.356 130.524 18.23L130.923 17.572C130.974 17.4927 131.035 17.432 131.105 17.39C131.175 17.348 131.264 17.327 131.371 17.327C131.478 17.327 131.579 17.3573 131.672 17.418C131.77 17.4787 131.882 17.544 132.008 17.614C132.134 17.684 132.281 17.7493 132.449 17.81C132.622 17.8707 132.839 17.901 133.1 17.901C133.305 17.901 133.48 17.8777 133.625 17.831C133.774 17.7797 133.896 17.7143 133.989 17.635C134.087 17.5557 134.157 17.4647 134.199 17.362C134.246 17.2547 134.269 17.145 134.269 17.033C134.269 16.865 134.218 16.7273 134.115 16.62C134.017 16.5127 133.884 16.4193 133.716 16.34C133.553 16.2607 133.364 16.1907 133.149 16.13C132.939 16.0647 132.722 15.9947 132.498 15.92C132.279 15.8453 132.062 15.759 131.847 15.661C131.637 15.5583 131.448 15.43 131.28 15.276C131.117 15.122 130.984 14.933 130.881 14.709C130.783 14.485 130.734 14.2143 130.734 13.897C130.734 13.603 130.792 13.323 130.909 13.057C131.026 12.791 131.196 12.56 131.42 12.364C131.649 12.1633 131.931 12.0047 132.267 11.888C132.608 11.7667 133 11.706 133.443 11.706C133.938 11.706 134.388 11.7877 134.794 11.951C135.2 12.1143 135.538 12.329 135.809 12.595L135.417 13.218ZM138.811 11.818V19H137.075V11.818H138.811ZM139.049 9.725C139.049 9.87433 139.019 10.0143 138.958 10.145C138.898 10.2757 138.816 10.39 138.713 10.488C138.615 10.586 138.499 10.6653 138.363 10.726C138.228 10.782 138.083 10.81 137.929 10.81C137.78 10.81 137.638 10.782 137.502 10.726C137.372 10.6653 137.257 10.586 137.159 10.488C137.061 10.39 136.982 10.2757 136.921 10.145C136.865 10.0143 136.837 9.87433 136.837 9.725C136.837 9.571 136.865 9.42633 136.921 9.291C136.982 9.15567 137.061 9.039 137.159 8.941C137.257 8.843 137.372 8.766 137.502 8.71C137.638 8.64933 137.78 8.619 137.929 8.619C138.083 8.619 138.228 8.64933 138.363 8.71C138.499 8.766 138.615 8.843 138.713 8.941C138.816 9.039 138.898 9.15567 138.958 9.291C139.019 9.42633 139.049 9.571 139.049 9.725ZM144.788 13.218C144.741 13.2927 144.692 13.3463 144.641 13.379C144.59 13.407 144.524 13.421 144.445 13.421C144.361 13.421 144.27 13.3977 144.172 13.351C144.079 13.3043 143.969 13.253 143.843 13.197C143.717 13.1363 143.572 13.0827 143.409 13.036C143.25 12.9893 143.061 12.966 142.842 12.966C142.501 12.966 142.233 13.0383 142.037 13.183C141.846 13.3277 141.75 13.5167 141.75 13.75C141.75 13.904 141.799 14.0347 141.897 14.142C142 14.2447 142.133 14.3357 142.296 14.415C142.464 14.4943 142.653 14.5667 142.863 14.632C143.073 14.6927 143.285 14.7603 143.5 14.835C143.719 14.9097 143.934 14.996 144.144 15.094C144.354 15.1873 144.541 15.3087 144.704 15.458C144.872 15.6027 145.005 15.7777 145.103 15.983C145.206 16.1883 145.257 16.4357 145.257 16.725C145.257 17.0703 145.194 17.39 145.068 17.684C144.947 17.9733 144.765 18.2253 144.522 18.44C144.279 18.65 143.978 18.8157 143.619 18.937C143.264 19.0537 142.854 19.112 142.387 19.112C142.14 19.112 141.897 19.0887 141.659 19.042C141.426 19 141.199 18.9393 140.98 18.86C140.765 18.7807 140.565 18.6873 140.378 18.58C140.196 18.4727 140.035 18.356 139.895 18.23L140.294 17.572C140.345 17.4927 140.406 17.432 140.476 17.39C140.546 17.348 140.635 17.327 140.742 17.327C140.849 17.327 140.95 17.3573 141.043 17.418C141.141 17.4787 141.253 17.544 141.379 17.614C141.505 17.684 141.652 17.7493 141.82 17.81C141.993 17.8707 142.21 17.901 142.471 17.901C142.676 17.901 142.851 17.8777 142.996 17.831C143.145 17.7797 143.267 17.7143 143.36 17.635C143.458 17.5557 143.528 17.4647 143.57 17.362C143.617 17.2547 143.64 17.145 143.64 17.033C143.64 16.865 143.589 16.7273 143.486 16.62C143.388 16.5127 143.255 16.4193 143.087 16.34C142.924 16.2607 142.735 16.1907 142.52 16.13C142.31 16.0647 142.093 15.9947 141.869 15.92C141.65 15.8453 141.433 15.759 141.218 15.661C141.008 15.5583 140.819 15.43 140.651 15.276C140.488 15.122 140.355 14.933 140.252 14.709C140.154 14.485 140.105 14.2143 140.105 13.897C140.105 13.603 140.163 13.323 140.28 13.057C140.397 12.791 140.567 12.56 140.791 12.364C141.02 12.1633 141.302 12.0047 141.638 11.888C141.979 11.7667 142.371 11.706 142.814 11.706C143.309 11.706 143.759 11.7877 144.165 11.951C144.571 12.1143 144.909 12.329 145.18 12.595L144.788 13.218ZM155.29 10.719C155.234 10.817 155.173 10.8893 155.108 10.936C155.047 10.978 154.97 10.999 154.877 10.999C154.779 10.999 154.671 10.964 154.555 10.894C154.443 10.8193 154.307 10.7377 154.149 10.649C153.99 10.5603 153.803 10.481 153.589 10.411C153.379 10.3363 153.129 10.299 152.84 10.299C152.578 10.299 152.35 10.3317 152.154 10.397C151.958 10.4577 151.792 10.544 151.657 10.656C151.526 10.768 151.428 10.9033 151.363 11.062C151.297 11.216 151.265 11.3863 151.265 11.573C151.265 11.811 151.33 12.0093 151.461 12.168C151.596 12.3267 151.773 12.462 151.993 12.574C152.212 12.686 152.462 12.7863 152.742 12.875C153.022 12.9637 153.309 13.0593 153.603 13.162C153.897 13.26 154.184 13.3767 154.464 13.512C154.744 13.6427 154.993 13.8107 155.213 14.016C155.432 14.2167 155.607 14.464 155.738 14.758C155.873 15.052 155.941 15.409 155.941 15.829C155.941 16.2863 155.861 16.7157 155.703 17.117C155.549 17.5137 155.32 17.8613 155.017 18.16C154.718 18.454 154.352 18.6873 153.918 18.86C153.484 19.028 152.987 19.112 152.427 19.112C152.105 19.112 151.787 19.0793 151.475 19.014C151.162 18.9533 150.861 18.8647 150.572 18.748C150.287 18.6313 150.019 18.4913 149.767 18.328C149.515 18.1647 149.291 17.9827 149.095 17.782L149.648 16.879C149.694 16.8137 149.755 16.76 149.83 16.718C149.904 16.6713 149.984 16.648 150.068 16.648C150.184 16.648 150.31 16.697 150.446 16.795C150.581 16.8883 150.742 16.9933 150.929 17.11C151.115 17.2267 151.332 17.334 151.58 17.432C151.832 17.5253 152.133 17.572 152.483 17.572C153.019 17.572 153.435 17.446 153.729 17.194C154.023 16.9373 154.17 16.571 154.17 16.095C154.17 15.829 154.102 15.612 153.967 15.444C153.836 15.276 153.661 15.136 153.442 15.024C153.222 14.9073 152.973 14.8093 152.693 14.73C152.413 14.6507 152.128 14.5643 151.839 14.471C151.549 14.3777 151.265 14.2657 150.985 14.135C150.705 14.0043 150.455 13.834 150.236 13.624C150.016 13.414 149.839 13.1527 149.704 12.84C149.573 12.5227 149.508 12.133 149.508 11.671C149.508 11.3023 149.58 10.943 149.725 10.593C149.874 10.243 150.089 9.93267 150.369 9.662C150.649 9.39133 150.994 9.17433 151.405 9.011C151.815 8.84767 152.287 8.766 152.819 8.766C153.416 8.766 153.967 8.85933 154.471 9.046C154.975 9.23267 155.404 9.494 155.759 9.83L155.29 10.719ZM163.311 11.818L159.398 20.974C159.347 21.0953 159.279 21.1863 159.195 21.247C159.116 21.3123 158.992 21.345 158.824 21.345H157.536L158.88 18.461L155.975 11.818H157.494C157.629 11.818 157.734 11.8507 157.809 11.916C157.888 11.9813 157.947 12.056 157.984 12.14L159.51 15.864C159.561 15.99 159.603 16.116 159.636 16.242C159.673 16.368 159.708 16.4963 159.741 16.627C159.783 16.4963 159.825 16.368 159.867 16.242C159.909 16.1113 159.956 15.983 160.007 15.857L161.449 12.14C161.486 12.0467 161.547 11.9697 161.631 11.909C161.72 11.8483 161.818 11.818 161.925 11.818H163.311ZM168.233 13.218C168.187 13.2927 168.138 13.3463 168.086 13.379C168.035 13.407 167.97 13.421 167.89 13.421C167.806 13.421 167.715 13.3977 167.617 13.351C167.524 13.3043 167.414 13.253 167.288 13.197C167.162 13.1363 167.018 13.0827 166.854 13.036C166.696 12.9893 166.507 12.966 166.287 12.966C165.947 12.966 165.678 13.0383 165.482 13.183C165.291 13.3277 165.195 13.5167 165.195 13.75C165.195 13.904 165.244 14.0347 165.342 14.142C165.445 14.2447 165.578 14.3357 165.741 14.415C165.909 14.4943 166.098 14.5667 166.308 14.632C166.518 14.6927 166.731 14.7603 166.945 14.835C167.165 14.9097 167.379 14.996 167.589 15.094C167.799 15.1873 167.986 15.3087 168.149 15.458C168.317 15.6027 168.45 15.7777 168.548 15.983C168.651 16.1883 168.702 16.4357 168.702 16.725C168.702 17.0703 168.639 17.39 168.513 17.684C168.392 17.9733 168.21 18.2253 167.967 18.44C167.725 18.65 167.424 18.8157 167.064 18.937C166.71 19.0537 166.299 19.112 165.832 19.112C165.585 19.112 165.342 19.0887 165.104 19.042C164.871 19 164.645 18.9393 164.425 18.86C164.211 18.7807 164.01 18.6873 163.823 18.58C163.641 18.4727 163.48 18.356 163.34 18.23L163.739 17.572C163.791 17.4927 163.851 17.432 163.921 17.39C163.991 17.348 164.08 17.327 164.187 17.327C164.295 17.327 164.395 17.3573 164.488 17.418C164.586 17.4787 164.698 17.544 164.824 17.614C164.95 17.684 165.097 17.7493 165.265 17.81C165.438 17.8707 165.655 17.901 165.916 17.901C166.122 17.901 166.297 17.8777 166.441 17.831C166.591 17.7797 166.712 17.7143 166.805 17.635C166.903 17.5557 166.973 17.4647 167.015 17.362C167.062 17.2547 167.085 17.145 167.085 17.033C167.085 16.865 167.034 16.7273 166.931 16.62C166.833 16.5127 166.7 16.4193 166.532 16.34C166.369 16.2607 166.18 16.1907 165.965 16.13C165.755 16.0647 165.538 15.9947 165.314 15.92C165.095 15.8453 164.878 15.759 164.663 15.661C164.453 15.5583 164.264 15.43 164.096 15.276C163.933 15.122 163.8 14.933 163.697 14.709C163.599 14.485 163.55 14.2143 163.55 13.897C163.55 13.603 163.609 13.323 163.725 13.057C163.842 12.791 164.012 12.56 164.236 12.364C164.465 12.1633 164.747 12.0047 165.083 11.888C165.424 11.7667 165.816 11.706 166.259 11.706C166.754 11.706 167.204 11.7877 167.61 11.951C168.016 12.1143 168.355 12.329 168.625 12.595L168.233 13.218ZM172.23 19.112C171.604 19.112 171.124 18.937 170.788 18.587C170.456 18.2323 170.291 17.7447 170.291 17.124V13.113H169.556C169.462 13.113 169.383 13.0827 169.318 13.022C169.252 12.9613 169.22 12.8703 169.22 12.749V12.063L170.375 11.874L170.739 9.914C170.762 9.82067 170.806 9.74833 170.872 9.697C170.937 9.64567 171.021 9.62 171.124 9.62H172.02V11.881H173.938V13.113H172.02V17.005C172.02 17.229 172.073 17.404 172.181 17.53C172.293 17.656 172.444 17.719 172.636 17.719C172.743 17.719 172.832 17.7073 172.902 17.684C172.976 17.656 173.039 17.628 173.091 17.6C173.147 17.572 173.196 17.5463 173.238 17.523C173.28 17.495 173.322 17.481 173.364 17.481C173.415 17.481 173.457 17.495 173.49 17.523C173.522 17.5463 173.557 17.5837 173.595 17.635L174.113 18.475C173.861 18.685 173.571 18.8437 173.245 18.951C172.918 19.0583 172.58 19.112 172.23 19.112ZM179.449 14.583C179.449 14.359 179.416 14.149 179.351 13.953C179.29 13.7523 179.197 13.5773 179.071 13.428C178.945 13.2787 178.784 13.162 178.588 13.078C178.397 12.9893 178.173 12.945 177.916 12.945C177.417 12.945 177.022 13.0873 176.733 13.372C176.448 13.6567 176.266 14.0603 176.187 14.583H179.449ZM176.152 15.626C176.18 15.9947 176.245 16.3143 176.348 16.585C176.451 16.851 176.586 17.0727 176.754 17.25C176.922 17.4227 177.12 17.5533 177.349 17.642C177.582 17.726 177.839 17.768 178.119 17.768C178.399 17.768 178.639 17.7353 178.84 17.67C179.045 17.6047 179.223 17.5323 179.372 17.453C179.526 17.3737 179.659 17.3013 179.771 17.236C179.888 17.1707 180 17.138 180.107 17.138C180.252 17.138 180.359 17.1917 180.429 17.299L180.926 17.929C180.735 18.153 180.52 18.342 180.282 18.496C180.044 18.6453 179.794 18.7667 179.533 18.86C179.276 18.9487 179.013 19.0117 178.742 19.049C178.476 19.0863 178.217 19.105 177.965 19.105C177.466 19.105 177.001 19.0233 176.572 18.86C176.143 18.692 175.769 18.447 175.452 18.125C175.135 17.7983 174.885 17.397 174.703 16.921C174.521 16.4403 174.43 15.885 174.43 15.255C174.43 14.765 174.509 14.3053 174.668 13.876C174.827 13.442 175.053 13.0663 175.347 12.749C175.646 12.427 176.007 12.1727 176.432 11.986C176.861 11.7993 177.344 11.706 177.881 11.706C178.334 11.706 178.751 11.7783 179.134 11.923C179.517 12.0677 179.846 12.28 180.121 12.56C180.396 12.8353 180.611 13.176 180.765 13.582C180.924 13.9833 181.003 14.443 181.003 14.961C181.003 15.2223 180.975 15.3997 180.919 15.493C180.863 15.5817 180.756 15.626 180.597 15.626H176.152ZM182.132 19V11.818H183.189C183.413 11.818 183.56 11.923 183.63 12.133L183.742 12.665C183.868 12.525 183.999 12.3967 184.134 12.28C184.274 12.1633 184.421 12.063 184.575 11.979C184.734 11.895 184.902 11.8297 185.079 11.783C185.261 11.7317 185.46 11.706 185.674 11.706C186.127 11.706 186.498 11.8297 186.787 12.077C187.081 12.3197 187.301 12.644 187.445 13.05C187.557 12.812 187.697 12.609 187.865 12.441C188.033 12.2683 188.218 12.1283 188.418 12.021C188.619 11.9137 188.831 11.8343 189.055 11.783C189.284 11.7317 189.513 11.706 189.741 11.706C190.138 11.706 190.49 11.7667 190.798 11.888C191.106 12.0093 191.365 12.1867 191.575 12.42C191.785 12.6533 191.944 12.938 192.051 13.274C192.163 13.61 192.219 13.995 192.219 14.429V19H190.49V14.429C190.49 13.9717 190.39 13.6287 190.189 13.4C189.989 13.1667 189.695 13.05 189.307 13.05C189.13 13.05 188.964 13.0803 188.81 13.141C188.661 13.2017 188.528 13.2903 188.411 13.407C188.299 13.519 188.211 13.6613 188.145 13.834C188.08 14.0067 188.047 14.205 188.047 14.429V19H186.311V14.429C186.311 13.9483 186.213 13.5983 186.017 13.379C185.826 13.1597 185.544 13.05 185.17 13.05C184.918 13.05 184.683 13.113 184.463 13.239C184.249 13.3603 184.048 13.5283 183.861 13.743V19H182.132Z" fill="white"/>
</svg>
