<svg width="450" height="34" viewBox="0 0 450 34" fill="none" xmlns="http://www.w3.org/2000/svg">
<rect x="13.5049" y="0.259766" width="15" height="30" rx="7.5" transform="rotate(30 13.5049 0.259766)" fill="url(#paint0_linear_1656_15126)"/>
<path d="M38.1631 27V7.20312H46.0381C50.3994 7.20312 52.6143 9.30859 52.6006 12.2891C52.6143 14.6133 51.083 16.0762 49.0459 16.5273V16.7188C51.2744 16.8281 53.3799 18.6055 53.3936 21.5312C53.3799 24.6758 51.0283 27 46.5576 27H38.1631ZM42.2646 23.6094H45.7373C48.1162 23.623 49.1416 22.6387 49.1279 21.1484C49.1416 19.4805 47.8701 18.3047 45.8467 18.3047H42.2646V23.6094ZM42.2646 15.4883H45.4365C47.1592 15.502 48.458 14.5312 48.4443 12.9453C48.458 11.5098 47.3916 10.5391 45.5186 10.5391H42.2646V15.4883ZM60.4209 27L54.7607 7.20312H59.2451L62.5811 21.0391H62.7451L66.3818 7.20312H70.2373L73.874 21.0664H74.0381L77.374 7.20312H81.8584L76.1982 27H72.1787L68.4053 13.9297H68.2412L64.4404 27H60.4209ZM83.9639 7.20312H89.0498L94.5459 20.6289H94.7646L100.261 7.20312H105.347V27H101.354V14.0391H101.19L96.0225 26.918H93.2881L88.1201 13.9844H87.9561V27H83.9639V7.20312ZM119.429 12.8633C119.265 11.291 118.021 10.375 116.011 10.375C113.933 10.375 112.771 11.332 112.757 12.6445C112.743 14.0801 114.22 14.7227 115.929 15.1055L117.706 15.543C121.097 16.3223 123.626 18.0449 123.64 21.3398C123.626 24.9629 120.81 27.2871 115.983 27.2734C111.198 27.2871 108.149 25.0723 108.026 20.8203H112.019C112.155 22.8164 113.741 23.8281 115.929 23.8281C118.089 23.8281 119.483 22.8164 119.483 21.3398C119.483 19.9863 118.253 19.3574 116.093 18.8242L113.933 18.3047C110.597 17.4844 108.546 15.8164 108.546 12.918C108.532 9.32227 111.704 6.92969 116.038 6.92969C120.427 6.92969 123.312 9.36328 123.366 12.8633H119.429ZM136.081 27H131.651L138.515 7.20312H143.792L150.628 27H146.226L144.735 22.4336H137.571L136.081 27ZM138.61 19.2344H143.696L141.222 11.6602H141.085L138.61 19.2344ZM156.972 7.20312V27H152.87V7.20312H156.972ZM173.733 27H166.761V7.20312H173.815C179.776 7.20312 183.427 10.9082 183.413 17.0742C183.427 23.2676 179.776 27 173.733 27ZM170.862 23.4727H173.569C177.343 23.4727 179.312 21.5176 179.312 17.0742C179.312 12.6719 177.343 10.7305 173.597 10.7305H170.862V23.4727ZM185.601 22.8438C185.614 19.5352 188.267 18.4551 191.124 18.2773C192.19 18.209 194.187 18.1133 194.815 18.0859V16.8828C194.802 15.6387 193.954 14.9277 192.437 14.9141C191.056 14.9277 190.194 15.543 189.976 16.5547H186.12C186.366 13.9844 188.608 11.9609 192.546 11.9609C195.786 11.9609 198.849 13.4102 198.835 16.9922V27H195.007V24.9492H194.897C194.173 26.3164 192.751 27.2871 190.55 27.2734C187.706 27.2871 185.614 25.7832 185.601 22.8438ZM189.483 22.7344C189.483 23.8691 190.399 24.4707 191.698 24.4844C193.544 24.4707 194.829 23.2676 194.815 21.6953V20.6152C194.2 20.6426 192.464 20.7383 191.78 20.793C190.372 20.916 189.483 21.5859 189.483 22.7344ZM209.745 12.1523V15.1875H206.956V22.4336C206.942 23.623 207.53 23.9102 208.351 23.9375C208.761 23.9375 209.472 23.8965 209.964 23.8555V27.0547C209.526 27.123 208.802 27.2051 207.804 27.1914C204.878 27.2051 202.882 25.8926 202.909 23.0078V15.1875H200.858V12.1523H202.909V8.59766H206.956V12.1523H209.745ZM211.577 22.8438C211.591 19.5352 214.243 18.4551 217.101 18.2773C218.167 18.209 220.163 18.1133 220.792 18.0859V16.8828C220.778 15.6387 219.931 14.9277 218.413 14.9141C217.032 14.9277 216.171 15.543 215.952 16.5547H212.097C212.343 13.9844 214.585 11.9609 218.522 11.9609C221.763 11.9609 224.825 13.4102 224.812 16.9922V27H220.983V24.9492H220.874C220.149 26.3164 218.728 27.2871 216.526 27.2734C213.683 27.2871 211.591 25.7832 211.577 22.8438ZM215.46 22.7344C215.46 23.8691 216.376 24.4707 217.675 24.4844C219.521 24.4707 220.806 23.2676 220.792 21.6953V20.6152C220.177 20.6426 218.44 20.7383 217.757 20.793C216.349 20.916 215.46 21.5859 215.46 22.7344ZM237.745 27H233.315L240.179 7.20312H245.456L252.292 27H247.89L246.399 22.4336H239.235L237.745 27ZM240.274 19.2344H245.36L242.886 11.6602H242.749L240.274 19.2344ZM258.499 18.4141V27H254.452V12.1523H258.308V14.75H258.472C259.142 13.041 260.728 11.9609 262.929 11.9609C266.032 11.9609 268.056 14.0801 268.042 17.5391V27H264.022V18.25C264.009 16.418 263.024 15.3242 261.343 15.3242C259.661 15.3242 258.499 16.459 258.499 18.4141ZM270.476 22.8438C270.489 19.5352 273.142 18.4551 275.999 18.2773C277.065 18.209 279.062 18.1133 279.69 18.0859V16.8828C279.677 15.6387 278.829 14.9277 277.312 14.9141C275.931 14.9277 275.069 15.543 274.851 16.5547H270.995C271.241 13.9844 273.483 11.9609 277.421 11.9609C280.661 11.9609 283.724 13.4102 283.71 16.9922V27H279.882V24.9492H279.772C279.048 26.3164 277.626 27.2871 275.425 27.2734C272.581 27.2871 270.489 25.7832 270.476 22.8438ZM274.358 22.7344C274.358 23.8691 275.274 24.4707 276.573 24.4844C278.419 24.4707 279.704 23.2676 279.69 21.6953V20.6152C279.075 20.6426 277.339 20.7383 276.655 20.793C275.247 20.916 274.358 21.5859 274.358 22.7344ZM290.847 7.20312V27H286.8V7.20312H290.847ZM296.37 32.5781C295.577 32.5645 294.839 32.5508 294.319 32.4961V29.3516C294.839 29.3926 295.454 29.4062 295.96 29.4062C296.767 29.4062 297.409 29.3242 297.901 28.0391L298.147 27.4102L292.815 12.1523H297.054L300.171 23.0898H300.335L303.479 12.1523H307.772L301.976 28.6406C301.128 31.0332 299.501 32.5645 296.37 32.5781ZM318.218 16.5547C318.04 15.5156 317.138 14.8457 315.784 14.832C314.472 14.8457 313.474 15.4609 313.487 16.3633C313.474 17.0332 313.993 17.5527 315.401 17.8398L318.054 18.3867C320.938 18.9883 322.333 20.2734 322.347 22.4062C322.333 25.332 319.708 27.2871 315.757 27.3008C311.751 27.2871 309.399 25.4961 309.058 22.5977H313.132C313.323 23.7598 314.267 24.3613 315.757 24.375C317.233 24.3613 318.218 23.7734 318.218 22.8164C318.218 22.0508 317.589 21.5723 316.194 21.2852L313.733 20.793C310.903 20.2324 309.454 18.7832 309.468 16.582C309.454 13.7383 311.901 11.9609 315.729 11.9609C319.476 11.9609 321.8 13.7383 322.019 16.5547H318.218ZM324.835 27V12.1523H328.882V27H324.835ZM324.644 8.16016C324.644 7.01172 325.642 6.0957 326.858 6.08203C328.062 6.0957 329.06 7.01172 329.046 8.16016C329.06 9.28125 328.062 10.2109 326.858 10.2109C325.642 10.2109 324.644 9.28125 324.644 8.16016ZM340.503 16.5547C340.325 15.5156 339.423 14.8457 338.069 14.832C336.757 14.8457 335.759 15.4609 335.772 16.3633C335.759 17.0332 336.278 17.5527 337.687 17.8398L340.339 18.3867C343.224 18.9883 344.618 20.2734 344.632 22.4062C344.618 25.332 341.993 27.2871 338.042 27.3008C334.036 27.2871 331.685 25.4961 331.343 22.5977H335.417C335.608 23.7598 336.552 24.3613 338.042 24.375C339.519 24.3613 340.503 23.7734 340.503 22.8164C340.503 22.0508 339.874 21.5723 338.479 21.2852L336.019 20.793C333.188 20.2324 331.739 18.7832 331.753 16.582C331.739 13.7383 334.187 11.9609 338.015 11.9609C341.761 11.9609 344.085 13.7383 344.304 16.5547H340.503ZM364.401 12.8633C364.237 11.291 362.993 10.375 360.983 10.375C358.905 10.375 357.743 11.332 357.729 12.6445C357.716 14.0801 359.192 14.7227 360.901 15.1055L362.679 15.543C366.069 16.3223 368.599 18.0449 368.612 21.3398C368.599 24.9629 365.782 27.2871 360.956 27.2734C356.171 27.2871 353.122 25.0723 352.999 20.8203H356.991C357.128 22.8164 358.714 23.8281 360.901 23.8281C363.062 23.8281 364.456 22.8164 364.456 21.3398C364.456 19.9863 363.226 19.3574 361.065 18.8242L358.905 18.3047C355.569 17.4844 353.519 15.8164 353.519 12.918C353.505 9.32227 356.677 6.92969 361.011 6.92969C365.399 6.92969 368.284 9.36328 368.339 12.8633H364.401ZM373.589 32.5781C372.796 32.5645 372.058 32.5508 371.538 32.4961V29.3516C372.058 29.3926 372.673 29.4062 373.179 29.4062C373.985 29.4062 374.628 29.3242 375.12 28.0391L375.366 27.4102L370.034 12.1523H374.272L377.39 23.0898H377.554L380.698 12.1523H384.991L379.194 28.6406C378.347 31.0332 376.72 32.5645 373.589 32.5781ZM395.437 16.5547C395.259 15.5156 394.356 14.8457 393.003 14.832C391.69 14.8457 390.692 15.4609 390.706 16.3633C390.692 17.0332 391.212 17.5527 392.62 17.8398L395.272 18.3867C398.157 18.9883 399.552 20.2734 399.565 22.4062C399.552 25.332 396.927 27.2871 392.976 27.3008C388.97 27.2871 386.618 25.4961 386.276 22.5977H390.351C390.542 23.7598 391.485 24.3613 392.976 24.375C394.452 24.3613 395.437 23.7734 395.437 22.8164C395.437 22.0508 394.808 21.5723 393.413 21.2852L390.952 20.793C388.122 20.2324 386.673 18.7832 386.687 16.582C386.673 13.7383 389.12 11.9609 392.948 11.9609C396.694 11.9609 399.019 13.7383 399.237 16.5547H395.437ZM409.874 12.1523V15.1875H407.085V22.4336C407.071 23.623 407.659 23.9102 408.479 23.9375C408.89 23.9375 409.601 23.8965 410.093 23.8555V27.0547C409.655 27.123 408.931 27.2051 407.933 27.1914C405.007 27.2051 403.011 25.8926 403.038 23.0078V15.1875H400.987V12.1523H403.038V8.59766H407.085V12.1523H409.874ZM418.979 27.3008C414.427 27.2871 411.638 24.3477 411.651 19.6445C411.638 15.0645 414.468 11.9609 418.815 11.9609C422.712 11.9609 425.788 14.4219 425.788 19.4805V20.6289H415.644C415.644 22.8711 416.97 24.252 419.062 24.2656C420.442 24.252 421.427 23.6504 421.823 22.7617H425.679C425.104 25.5098 422.644 27.2871 418.979 27.3008ZM415.644 18.0859H421.96C421.946 16.2812 420.702 14.9824 418.897 14.9961C417.038 14.9824 415.726 16.377 415.644 18.0859ZM428.331 27V12.1523H432.187V14.75H432.351C432.979 13.0137 434.483 11.9609 436.479 11.9609C438.517 11.9609 440.034 13.041 440.526 14.75H440.663C441.278 13.0684 442.974 11.9609 445.147 11.9609C447.896 11.9609 449.823 13.7793 449.823 17.0195V27H445.776V17.8125C445.79 16.1172 444.778 15.2969 443.452 15.2969C441.935 15.2969 441.032 16.3496 441.046 17.9219V27H437.108V17.7031C437.122 16.2402 436.192 15.2969 434.812 15.2969C433.431 15.2969 432.364 16.4043 432.378 18.0859V27H428.331Z" fill="#0069B4"/>
<defs>
<linearGradient id="paint0_linear_1656_15126" x1="21.0049" y1="0.259766" x2="21.0049" y2="30.2598" gradientUnits="userSpaceOnUse">
<stop stop-color="#94B0F2"/>
<stop offset="1" stop-color="#0069B4"/>
</linearGradient>
</defs>
</svg>
