<svg width="50" height="50" viewBox="0 0 50 50" fill="none" xmlns="http://www.w3.org/2000/svg">
<circle cx="25" cy="25" r="25" fill="white"/>
<path d="M31.9881 23.9441L25.0363 17.2002L18.0844 23.9441C18.0024 24.005 17.9348 24.0823 17.8861 24.171C17.8374 24.2596 17.8088 24.3574 17.8022 24.4577C17.7957 24.558 17.8113 24.6585 17.848 24.7525C17.8848 24.8464 17.9418 24.9315 18.0152 25.0021C18.0886 25.0727 18.1767 25.1271 18.2736 25.1615C18.3704 25.196 18.4737 25.2098 18.5765 25.202C18.6793 25.1941 18.7791 25.1649 18.8693 25.1161C18.9595 25.0674 19.0379 25.0003 19.0991 24.9195L24.3166 19.8739V35.8984C24.3166 36.0846 24.3924 36.2631 24.5274 36.3947C24.6624 36.5263 24.8454 36.6002 25.0363 36.6002C25.2271 36.6002 25.4102 36.5263 25.5451 36.3947C25.6801 36.2631 25.7559 36.0846 25.7559 35.8984V19.8739L30.9734 24.9195C31.1089 25.0507 31.2923 25.1241 31.4833 25.1234C31.6742 25.1227 31.8571 25.0481 31.9917 24.916C32.1262 24.7838 32.2015 24.605 32.2008 24.4188C32.2001 24.2325 32.1236 24.0542 31.9881 23.923V23.9441Z" fill="#4E4E4E"/>
<path d="M17 13H33" stroke="#4E4E4E" stroke-width="1.5" stroke-linecap="round"/>
</svg>
