<svg width="50" height="60" viewBox="0 0 50 60" fill="none" xmlns="http://www.w3.org/2000/svg">
<g clip-path="url(#clip0_497_2414)">
<path fill-rule="evenodd" clip-rule="evenodd" d="M27.1288 29.3501L23.4091 25.6304L24.4698 24.5697L29.4698 29.5697L30.0001 30.1001L29.4698 30.6304L24.4698 35.6304L23.4091 34.5697L27.1288 30.8501H13.9395V29.3501H27.1288Z" fill="#336AEF"/>
<path fill-rule="evenodd" clip-rule="evenodd" d="M48.4534 30.1C48.4534 44.4594 36.8128 56.1 22.4534 56.1C14.1281 56.1 6.71669 52.1871 1.95798 46.1H0.702583C5.61851 52.7716 13.5305 57.1 22.4534 57.1C37.365 57.1 49.4534 45.0117 49.4534 30.1C49.4534 15.1883 37.365 3.09998 22.4534 3.09998C13.0921 3.09998 4.84357 7.86407 0 15.1H1.21399C5.92269 8.4448 13.6806 4.09998 22.4534 4.09998C36.8128 4.09998 48.4534 15.7406 48.4534 30.1Z" fill="#336AEF"/>
</g>
<defs>
<clipPath id="clip0_497_2414">
<rect width="50" height="54" fill="white" transform="translate(0 3.09998)"/>
</clipPath>
</defs>
</svg>
