<svg width="171" height="42" viewBox="0 0 171 42" fill="none" xmlns="http://www.w3.org/2000/svg">
<path d="M28.5848 12.4154C31.5756 13.6934 34.9394 13.7924 38.0002 12.6923M11.6925 39C12.7916 35.9296 12.6927 32.5576 11.4155 29.5569C10.4159 27.1676 10.1454 24.536 10.6382 21.9933C11.131 19.4506 12.3649 17.1105 14.1848 15.2677C16.0503 13.4214 18.4207 12.1688 20.9971 11.6677" stroke="#336AEF" stroke-width="2.5" stroke-linecap="round" stroke-linejoin="round"/>
<path d="M18.8923 30.3323C21.4818 29.8286 23.8628 28.5658 25.7323 26.7046M25.7323 26.7046C27.5553 24.8637 28.7914 22.5235 29.2844 19.98C29.7773 17.4366 29.5049 14.804 28.5015 12.4154C27.2504 9.41397 27.1812 6.05036 28.3077 3M25.7323 26.7046L14.2954 15.2677M2 29.3077C5.06208 28.2024 8.43115 28.3114 11.4154 29.6123" stroke="#336AEF" stroke-width="2.5" stroke-linecap="round" stroke-linejoin="round"/>
<path d="M25.7318 26.7046L14.2949 15.2677" stroke="#8CC1FF" stroke-width="2.5" stroke-linecap="round" stroke-linejoin="round"/>
<path d="M63.94 8.62H62.12V11.7H59.6V3.32H62.12V6.06H63.94V8.62ZM57.48 5.56C57.48 7.61333 56.7067 9.13333 55.16 10.12C53.6133 11.1067 51.5133 11.6 48.86 11.6V9.36C50.7133 9.33333 52.18 9.03333 53.26 8.46C54.3533 7.88667 54.9 7.1 54.9 6.1V5.78H48.86V3.56H57.48V5.56ZM55.8 12.02C57.7733 12.02 59.3467 12.2867 60.52 12.82C61.6933 13.3533 62.28 14.22 62.28 15.42C62.28 16.6067 61.6933 17.4667 60.52 18C59.3467 18.5333 57.7733 18.8 55.8 18.8C53.8267 18.8 52.2533 18.5333 51.08 18C49.9067 17.4667 49.32 16.6067 49.32 15.42C49.32 14.22 49.9067 13.3533 51.08 12.82C52.2533 12.2867 53.8267 12.02 55.8 12.02ZM55.8 16.66C56.9333 16.66 57.84 16.56 58.52 16.36C59.2133 16.16 59.56 15.8467 59.56 15.42C59.56 14.9933 59.2133 14.68 58.52 14.48C57.8267 14.2667 56.92 14.16 55.8 14.16C54.6667 14.16 53.7533 14.2667 53.06 14.48C52.3667 14.68 52.02 14.9933 52.02 15.42C52.02 15.8467 52.3667 16.16 53.06 16.36C53.7533 16.56 54.6667 16.66 55.8 16.66ZM75.9579 3.32H78.4779V15.26H75.9579V14.66H71.9779V12.8H75.9579V3.32ZM69.6179 9.4C68.2712 9.4 67.1912 9.13333 66.3779 8.6C65.5646 8.06667 65.1579 7.3 65.1579 6.3C65.1579 5.31333 65.5646 4.55333 66.3779 4.02C67.1912 3.48667 68.2712 3.22 69.6179 3.22C70.9512 3.22 72.0179 3.48667 72.8179 4.02C73.6312 4.55333 74.0379 5.31333 74.0379 6.3C74.0379 7.28667 73.6312 8.05333 72.8179 8.6C72.0179 9.13333 70.9512 9.4 69.6179 9.4ZM69.6179 5.18C69.0046 5.18 68.5179 5.28 68.1579 5.48C67.7979 5.66667 67.6179 5.94 67.6179 6.3C67.6179 6.67333 67.7979 6.95333 68.1579 7.14C68.5179 7.32667 69.0046 7.42 69.6179 7.42C70.2179 7.42 70.6912 7.32667 71.0379 7.14C71.3979 6.95333 71.5779 6.67333 71.5779 6.3C71.5779 5.94 71.3979 5.66667 71.0379 5.48C70.6912 5.28 70.2179 5.18 69.6179 5.18ZM64.3979 12.16V10.08H70.9179C72.8112 10.08 74.1712 9.88667 74.9979 9.5V11.58C74.1579 11.9667 72.6846 12.16 70.5779 12.16V14.62H68.0579V12.16H64.3979ZM78.7379 18.62H65.5979V13.8H68.1379V16.38H78.7379V18.62ZM87.2309 14.82L85.9509 18H83.1909L89.1709 4H91.8109L97.8109 18H94.9909L93.7109 14.82H87.2309ZM90.4909 6.8L88.0909 12.66H92.8509L90.4909 6.8ZM101.477 4V18H98.797V4H101.477ZM107.092 6.14V4.28H109.772V3.06H112.272V4.28H114.832V6.14H107.092ZM119.492 11.48V3.32H121.792V11.48H119.492ZM115.992 3.38H118.272V11.32H115.992V8.88H114.812V6.7H115.992V3.38ZM114.532 9.06C114.532 9.82 114.205 10.42 113.552 10.86C112.898 11.2867 112.058 11.5 111.032 11.5C110.005 11.5 109.165 11.2867 108.512 10.86C107.872 10.4333 107.552 9.83333 107.552 9.06C107.552 8.28667 107.872 7.68667 108.512 7.26C109.165 6.82 110.005 6.6 111.032 6.6C112.058 6.6 112.898 6.82 113.552 7.26C114.205 7.68667 114.532 8.28667 114.532 9.06ZM109.712 9.06C109.712 9.28667 109.832 9.47333 110.072 9.62C110.325 9.75333 110.645 9.82 111.032 9.82C111.418 9.82 111.732 9.75333 111.972 9.62C112.225 9.47333 112.352 9.28667 112.352 9.06C112.352 8.82 112.232 8.63333 111.992 8.5C111.752 8.35333 111.432 8.28 111.032 8.28C110.645 8.28 110.325 8.35333 110.072 8.5C109.832 8.63333 109.712 8.82 109.712 9.06ZM122.012 18.62H108.432V14.62H119.352V13.86H108.392V12.1H121.792V16.08H110.872V16.86H122.012V18.62ZM130.489 8.94C129.623 10.22 128.583 11.2267 127.369 11.96C126.156 12.6933 124.876 13.0667 123.529 13.08V10.56C124.516 10.56 125.463 10.2467 126.369 9.62C127.276 8.98 128.043 8.11333 128.669 7.02C129.296 5.91333 129.703 4.67333 129.889 3.3L132.469 3.72C132.309 4.8 132.016 5.84667 131.589 6.86L137.889 11L136.549 13.14L130.489 8.94ZM137.969 15.6V18.08H123.249V15.6H137.969ZM153.467 18.68H151.107V3.32H153.467V18.68ZM149.747 3.38V18.42H147.407V11.62H145.547C145.201 13.6067 144.474 15.14 143.367 16.22C142.261 17.3 140.921 17.8533 139.347 17.88V15.5C140.387 15.4467 141.234 15.08 141.887 14.4C142.554 13.7067 143.001 12.7333 143.227 11.48H139.347V9.12H143.407V7.8V6.08H139.347V3.74H145.787V7.7C145.787 8.32667 145.781 8.79333 145.767 9.1H147.407V3.38H149.747ZM168.985 18.68H166.465V11.78H164.265C164.159 13.8867 163.712 15.4667 162.925 16.52C162.152 17.56 161.119 18.08 159.825 18.08C158.439 18.08 157.345 17.48 156.545 16.28C155.745 15.0667 155.345 13.2467 155.345 10.82C155.345 8.39333 155.745 6.58 156.545 5.38C157.345 4.16667 158.439 3.56 159.825 3.56C161.052 3.56 162.052 4.04 162.825 5C163.599 5.94667 164.072 7.38 164.245 9.3H166.465V3.32H168.985V18.68ZM159.825 15.66C160.425 15.66 160.899 15.28 161.245 14.52C161.605 13.76 161.785 12.5267 161.785 10.82C161.785 9.12667 161.605 7.9 161.245 7.14C160.899 6.36667 160.425 5.98 159.825 5.98C159.212 5.98 158.725 6.36667 158.365 7.14C158.019 7.9 157.845 9.12667 157.845 10.82C157.845 14.0467 158.505 15.66 159.825 15.66Z" fill="#8CC1FF"/>
<path d="M56 39H53.36L47.58 25H50.48L54.78 35.5L59.12 25H61.8L56 39ZM76.5472 37.56C75.9205 38.0933 75.2072 38.5067 74.4072 38.8C73.6205 39.08 72.7805 39.22 71.8872 39.22C70.9005 39.22 70.0072 39.06 69.2072 38.74C68.4205 38.4067 67.8005 37.9533 67.3472 37.38C66.9072 36.8067 66.6872 36.16 66.6872 35.44C66.6872 34.5733 66.9339 33.8133 67.4272 33.16C67.9339 32.4933 68.7472 31.84 69.8672 31.2C69.3339 30.6533 68.9472 30.14 68.7072 29.66C68.4805 29.18 68.3672 28.68 68.3672 28.16C68.3672 27.16 68.7472 26.36 69.5072 25.76C70.2672 25.1467 71.2739 24.84 72.5272 24.84C73.6872 24.84 74.6139 25.12 75.3072 25.68C76.0139 26.24 76.3672 27 76.3672 27.96C76.3672 28.6667 76.1405 29.3 75.6872 29.86C75.2472 30.42 74.5272 30.9733 73.5272 31.52L76.3872 34.28C76.7339 33.6267 76.9872 32.86 77.1472 31.98L79.3272 32.66C79.0605 33.9133 78.6405 34.9733 78.0672 35.84L79.8072 37.5L78.3072 39.24L76.5472 37.56ZM72.5272 26.7C71.9939 26.7 71.5805 26.8333 71.2872 27.1C70.9939 27.3667 70.8472 27.7133 70.8472 28.14C70.8472 28.4467 70.9272 28.74 71.0872 29.02C71.2472 29.3 71.5605 29.6733 72.0272 30.14C72.7872 29.7133 73.3139 29.3467 73.6072 29.04C73.9005 28.72 74.0472 28.3733 74.0472 28C74.0472 27.6133 73.9139 27.3 73.6472 27.06C73.3939 26.82 73.0205 26.7 72.5272 26.7ZM72.0672 37.08C73.1872 37.08 74.1472 36.74 74.9472 36.06L71.3672 32.62C70.6205 33.06 70.0939 33.4733 69.7872 33.86C69.4939 34.2333 69.3472 34.66 69.3472 35.14C69.3472 35.7133 69.5939 36.18 70.0872 36.54C70.5805 36.9 71.2405 37.08 72.0672 37.08ZM93.2206 39H90.5806L84.8006 25H87.7006L92.0006 35.5L96.3406 25H99.0206L93.2206 39ZM113.955 29.88V28.02H116.295V26.24H114.115V24.38H126.955V26.24H124.755V28.02H127.095V29.88H113.955ZM122.275 28.02V26.24H118.795V28.02H122.275ZM127.895 32.64H113.175V30.7H127.895V32.64ZM127.175 37.96V39.62H114.095V35.8H124.515V35.08H114.055V33.44H126.995V37.24H116.575V37.96H127.175ZM142.153 33.72V24.38H144.493V27.66H146.073V24.32H148.433V35.14H146.073V30.1H144.493V33.72H142.153ZM141.393 33.06C140.593 33.42 139.353 33.6 137.673 33.6H134.373V28.08H138.453V26.68H134.373V24.56H140.793V30.06H136.693V31.5H137.813C139.346 31.5 140.54 31.3267 141.393 30.98V33.06ZM141.693 37.56C140.88 38.24 139.893 38.7533 138.733 39.1C137.573 39.4467 136.353 39.62 135.073 39.62V37.24C136.033 37.2267 136.946 37.0933 137.813 36.84C138.68 36.5733 139.406 36.2067 139.993 35.74C140.593 35.26 140.98 34.7 141.153 34.06L143.653 34.6C143.586 34.9333 143.46 35.2933 143.273 35.68L149.113 37.52L148.273 39.82L141.693 37.56ZM169.651 33.48H154.931V31.46H161.031V30.4H155.711V28.4H158.051V26.38H155.871V24.38H168.711V26.38H166.511V28.4H168.851V30.4H163.551V31.46H169.651V33.48ZM164.011 28.4V26.38H160.571V28.4H164.011ZM168.751 34.4V39.62H155.831V34.4H168.751ZM166.231 37.64V36.4H158.331V37.64H166.231Z" fill="white"/>
</svg>
