<svg width="150" height="34" viewBox="0 0 150 34" fill="none" xmlns="http://www.w3.org/2000/svg">
<path d="M25.093 9.54208C27.6911 10.6523 30.6131 10.7383 33.2719 9.78264M10.419 32.6355C11.3738 29.9683 11.2879 27.0392 10.1785 24.4326C9.31009 22.357 9.07515 20.071 9.5032 17.8622C9.93126 15.6535 11.0032 13.6207 12.584 12.0198C14.2046 10.416 16.2637 9.32788 18.5017 8.89258" stroke="#336AEF" stroke-width="2.5" stroke-linecap="round" stroke-linejoin="round"/>
<path d="M16.674 25.1062C18.9234 24.6687 20.9917 23.5717 22.6157 21.9549M22.6157 21.9549C24.1993 20.3558 25.2731 18.3229 25.7013 16.1135C26.1295 13.904 25.8929 11.6172 25.0213 9.54222C23.9345 6.93496 23.8743 4.01306 24.8529 1.36328M22.6157 21.9549L12.6807 12.02M2 24.2162C4.65996 23.256 7.58659 23.3507 10.1789 24.4808" stroke="#336AEF" stroke-width="2.5" stroke-linecap="round" stroke-linejoin="round"/>
<path d="M23 22.4121L13 12.4121" stroke="#8CC1FF" stroke-width="2.5" stroke-linecap="round" stroke-linejoin="round"/>
<path d="M148.271 14H146.239V8.16016H144.465C144.379 9.94314 144.019 11.2804 143.384 12.1719C142.761 13.0521 141.927 13.4922 140.884 13.4922C139.766 13.4922 138.884 12.9844 138.239 11.9688C137.594 10.9418 137.271 9.40148 137.271 7.34766C137.271 5.29384 137.594 3.75911 138.239 2.74349C138.884 1.71658 139.766 1.20312 140.884 1.20312C141.874 1.20312 142.68 1.60937 143.304 2.42187C143.927 3.22309 144.309 4.4362 144.449 6.0612H146.239V1H148.271V14ZM140.884 11.444C141.368 11.444 141.75 11.1224 142.03 10.4792C142.32 9.83594 142.465 8.7921 142.465 7.34766C142.465 5.9145 142.32 4.8763 142.03 4.23307C141.75 3.57856 141.368 3.2513 140.884 3.2513C140.39 3.2513 139.997 3.57856 139.707 4.23307C139.427 4.8763 139.288 5.9145 139.288 7.34766C139.288 10.0786 139.82 11.444 140.884 11.444Z" fill="#8CC1FF"/>
<path d="M135.271 14H133.266V1H135.271V14ZM132.11 1.05078V13.7799H130.121V8.02474H128.541C128.246 9.70616 127.628 11.0039 126.688 11.918C125.747 12.832 124.609 13.3003 123.271 13.3229V11.3086C124.155 11.2635 124.875 10.9531 125.43 10.3776C125.997 9.7908 126.376 8.96701 126.569 7.90625H123.271V5.90885H126.722V4.79167V3.33594H123.271V1.35547H128.745V4.70703C128.745 5.23741 128.739 5.63238 128.728 5.89193H130.121V1.05078H132.11Z" fill="#8CC1FF"/>
<path d="M115.174 5.96076C114.467 7.0866 113.619 7.97203 112.63 8.61705C111.641 9.26207 110.598 9.59044 109.5 9.60217V7.38566C110.304 7.38566 111.076 7.11006 111.815 6.55886C112.554 5.99594 113.179 5.23365 113.69 4.27199C114.201 3.2986 114.532 2.20794 114.685 1L116.788 1.36942C116.657 2.31935 116.418 3.23996 116.07 4.13126L121.206 7.77267L120.114 9.65494L115.174 5.96076ZM121.271 11.8187V14H109.271V11.8187H121.271Z" fill="#8CC1FF"/>
<path d="M95.2715 3.57327V2.01928H97.6066V1H99.7849V2.01928H102.015V3.57327H95.2715ZM106.076 8.0347V1.21722H108.08V8.0347H106.076ZM103.026 1.26735H105.013V7.90103H103.026V5.86247H101.998V4.04113H103.026V1.26735ZM101.754 6.01285C101.754 6.64781 101.469 7.1491 100.9 7.51671C100.331 7.87318 99.599 8.05141 98.7045 8.05141C97.8099 8.05141 97.078 7.87318 96.5087 7.51671C95.9511 7.16024 95.6723 6.65895 95.6723 6.01285C95.6723 5.36675 95.9511 4.86547 96.5087 4.509C97.078 4.14139 97.8099 3.95758 98.7045 3.95758C99.599 3.95758 100.331 4.14139 100.9 4.509C101.469 4.86547 101.754 5.36675 101.754 6.01285ZM97.5543 6.01285C97.5543 6.20223 97.6589 6.35818 97.868 6.48072C98.0887 6.59212 98.3676 6.64781 98.7045 6.64781C99.0414 6.64781 99.3144 6.59212 99.5235 6.48072C99.7442 6.35818 99.8546 6.20223 99.8546 6.01285C99.8546 5.81234 99.75 5.65638 99.5409 5.54499C99.3318 5.42245 99.053 5.36118 98.7045 5.36118C98.3676 5.36118 98.0887 5.42245 97.868 5.54499C97.6589 5.65638 97.5543 5.81234 97.5543 6.01285ZM108.271 14H96.439V10.6581H105.954V10.0231H96.4042V8.5527H108.08V11.8779H98.565V12.5296H108.271V14Z" fill="#8CC1FF"/>
<path d="M90.2715 1V14H87.2715V1H90.2715Z" fill="#8CC1FF"/>
<path d="M77.8638 11.0471L76.7257 14H74.2715L79.5889 1H81.9363L87.2715 14H84.764L83.6258 11.0471H77.8638ZM80.7626 3.6L78.6285 9.04143H82.8611L80.7626 3.6Z" fill="#8CC1FF"/>
<path d="M67.9451 1.08442H70.0539V11.1636H67.9451V10.6571H64.6146V9.08701H67.9451V1.08442ZM62.6397 6.21688C61.5128 6.21688 60.609 5.99178 59.9284 5.54156C59.2478 5.09134 58.9075 4.44416 58.9075 3.6C58.9075 2.7671 59.2478 2.12554 59.9284 1.67532C60.609 1.22511 61.5128 1 62.6397 1C63.7554 1 64.6481 1.22511 65.3175 1.67532C65.9981 2.12554 66.3384 2.7671 66.3384 3.6C66.3384 4.4329 65.9981 5.08009 65.3175 5.54156C64.6481 5.99178 63.7554 6.21688 62.6397 6.21688ZM62.6397 2.65455C62.1264 2.65455 61.7192 2.73896 61.4179 2.90779C61.1167 3.06537 60.966 3.2961 60.966 3.6C60.966 3.91515 61.1167 4.15151 61.4179 4.30909C61.7192 4.46667 62.1264 4.54545 62.6397 4.54545C63.1418 4.54545 63.5379 4.46667 63.828 4.30909C64.1292 4.15151 64.2799 3.91515 64.2799 3.6C64.2799 3.2961 64.1292 3.06537 63.828 2.90779C63.5379 2.73896 63.1418 2.65455 62.6397 2.65455ZM58.2715 8.54675V6.79091H63.7276C65.3119 6.79091 66.45 6.62771 67.1418 6.3013V8.05714C66.4388 8.38355 65.2059 8.54675 63.443 8.54675V10.6234H61.3342V8.54675H58.2715ZM70.2715 14H59.2757V9.93117H61.4012V12.1091H70.2715V14Z" fill="#8CC1FF"/>
<path d="M57.2715 5.4509H55.7025V8.03747H53.5301V1H55.7025V3.30103H57.2715V5.4509ZM51.7025 2.88114C51.7025 4.60551 51.0359 5.882 49.7025 6.71059C48.3692 7.53919 46.5588 7.95349 44.2715 7.95349V6.07235C45.8692 6.04996 47.1336 5.79802 48.0646 5.31654C49.0071 4.83506 49.4784 4.17442 49.4784 3.33463V3.06589H44.2715V1.20155H51.7025V2.88114ZM50.2542 8.3062C51.9554 8.3062 53.3117 8.53015 54.3232 8.97804C55.3347 9.42593 55.8404 10.1537 55.8404 11.1615C55.8404 12.1581 55.3347 12.8803 54.3232 13.3282C53.3117 13.7761 51.9554 14 50.2542 14C48.5531 14 47.1968 13.7761 46.1853 13.3282C45.1738 12.8803 44.668 12.1581 44.668 11.1615C44.668 10.1537 45.1738 9.42593 46.1853 8.97804C47.1968 8.53015 48.5531 8.3062 50.2542 8.3062ZM50.2542 12.2028C51.2313 12.2028 52.0129 12.1189 52.5991 11.9509C53.1968 11.7829 53.4956 11.5198 53.4956 11.1615C53.4956 10.8032 53.1968 10.5401 52.5991 10.3721C52.0014 10.1929 51.2198 10.1034 50.2542 10.1034C49.2772 10.1034 48.4899 10.1929 47.8922 10.3721C47.2945 10.5401 46.9956 10.8032 46.9956 11.1615C46.9956 11.5198 47.2945 11.7829 47.8922 11.9509C48.4899 12.1189 49.2772 12.2028 50.2542 12.2028Z" fill="#8CC1FF"/>
<path d="M149.271 26.7625H136.271V25.0394H141.659V24.1352H136.96V22.4291H139.027V20.706H137.102V19H148.441V20.706H146.498V22.4291H148.565V24.1352H143.884V25.0394H149.271V26.7625ZM144.291 22.4291V20.706H141.252V22.4291H144.291ZM148.477 27.5472V32H137.066V27.5472H148.477ZM146.251 30.311V29.2533H139.274V30.311H146.251Z" fill="white"/>
<path d="M125.133 27.4903V19.0542H127.197V22.0168H128.59V19H130.672V28.7729H128.59V24.2206H127.197V27.4903H125.133ZM124.463 26.8942C123.757 27.2194 122.664 27.3819 121.182 27.3819H118.271V22.3961H121.87V21.1316H118.271V19.2168H123.934V24.1845H120.318V25.4852H121.305C122.658 25.4852 123.71 25.3286 124.463 25.0155V26.8942ZM124.727 30.9587C124.01 31.5729 123.14 32.0366 122.117 32.3497C121.094 32.6628 120.018 32.8194 118.889 32.8194V30.6697C119.736 30.6576 120.541 30.5372 121.305 30.3084C122.07 30.0675 122.711 29.7363 123.228 29.3148C123.757 28.8813 124.098 28.3755 124.251 27.7974L126.456 28.2852C126.397 28.5862 126.286 28.9114 126.121 29.2606L131.271 30.9226L130.531 33L124.727 30.9587Z" fill="white"/>
<path d="M100.96 23.6916V22.105H103.027V20.5866H101.102V19H112.441V20.5866H110.498V22.105H112.565V23.6916H100.96ZM108.308 22.105V20.5866H105.235V22.105H108.308ZM113.271 26.0459H100.271V24.3911H113.271V26.0459ZM112.636 30.584V32H101.084V28.7415H110.286V28.1273H101.049V26.7283H112.477V29.9698H103.274V30.584H112.636Z" fill="white"/>
<path d="M82.9691 32H80.5556L75.2715 20H77.9227L81.8538 29L85.8214 20H88.2715L82.9691 32Z" fill="white"/>
<path d="M68.5383 30.6C68.0128 31.0444 67.4148 31.3889 66.744 31.6333C66.0845 31.8667 65.3802 31.9833 64.6312 31.9833C63.804 31.9833 63.055 31.85 62.3843 31.5833C61.7247 31.3056 61.2049 30.9278 60.8248 30.45C60.4559 29.9722 60.2715 29.4333 60.2715 28.8333C60.2715 28.1111 60.4783 27.4778 60.8919 26.9333C61.3167 26.3778 61.9986 25.8333 62.9376 25.3C62.4905 24.8444 62.1663 24.4167 61.9651 24.0167C61.775 23.6167 61.68 23.2 61.68 22.7667C61.68 21.9333 61.9986 21.2667 62.6358 20.7667C63.273 20.2556 64.117 20 65.1678 20C66.1404 20 66.9173 20.2333 67.4986 20.7C68.0911 21.1667 68.3873 21.8 68.3873 22.6C68.3873 23.1889 68.1973 23.7167 67.8172 24.1833C67.4483 24.65 66.8447 25.1111 66.0062 25.5667L68.4041 27.8667C68.6948 27.3222 68.9072 26.6833 69.0413 25.95L70.869 26.5167C70.6455 27.5611 70.2933 28.4444 69.8126 29.1667L71.2715 30.55L70.0139 32L68.5383 30.6ZM65.1678 21.55C64.7207 21.55 64.3741 21.6611 64.1282 21.8833C63.8823 22.1056 63.7593 22.3944 63.7593 22.75C63.7593 23.0056 63.8264 23.25 63.9605 23.4833C64.0947 23.7167 64.3574 24.0278 64.7486 24.4167C65.3858 24.0611 65.8274 23.7556 66.0733 23.5C66.3192 23.2333 66.4422 22.9444 66.4422 22.6333C66.4422 22.3111 66.3304 22.05 66.1069 21.85C65.8945 21.65 65.5814 21.55 65.1678 21.55ZM64.7822 30.2C65.7212 30.2 66.5261 29.9167 67.1968 29.35L64.1953 26.4833C63.5692 26.85 63.1277 27.1944 62.8706 27.5167C62.6246 27.8278 62.5017 28.1833 62.5017 28.5833C62.5017 29.0611 62.7085 29.45 63.1221 29.75C63.5357 30.05 64.0891 30.2 64.7822 30.2Z" fill="white"/>
<path d="M50.377 32H48.1491L43.2715 20H45.7187L49.3474 29L53.0099 20H55.2715L50.377 32Z" fill="white"/>
</svg>
