<svg width="171" height="43" viewBox="0 0 171 43" fill="none" xmlns="http://www.w3.org/2000/svg">
<path d="M28.5848 13.0153C31.5756 14.2934 34.9394 14.3923 38.0002 13.2922M11.6925 39.5999C12.7916 36.5295 12.6927 33.1575 11.4155 30.1568C10.4159 27.7675 10.1454 25.1359 10.6382 22.5932C11.131 20.0505 12.3649 17.7105 14.1848 15.8676C16.0503 14.0213 18.4207 12.7687 20.9971 12.2676" stroke="#959AAA" stroke-width="2.5" stroke-linecap="round" stroke-linejoin="round"/>
<path d="M18.8923 30.9324C21.4818 30.4287 23.8628 29.1659 25.7323 27.3047M25.7323 27.3047C27.5553 25.4638 28.7914 23.1236 29.2844 20.5801C29.7773 18.0367 29.5049 15.4041 28.5015 13.0155C27.2504 10.0141 27.1812 6.65046 28.3077 3.6001M25.7323 27.3047L14.2954 15.8678M2 29.9078C5.06208 28.8025 8.43115 28.9115 11.4154 30.2124" stroke="#959AAA" stroke-width="2.5" stroke-linecap="round" stroke-linejoin="round"/>
<path d="M25.7318 27.3046L14.2949 15.8677" stroke="#959AAA" stroke-width="2.5" stroke-linecap="round" stroke-linejoin="round"/>
<path d="M63.94 9.2201H62.12V12.3001H59.6V3.9201H62.12V6.6601H63.94V9.2201ZM57.48 6.1601C57.48 8.21343 56.7067 9.73343 55.16 10.7201C53.6133 11.7068 51.5133 12.2001 48.86 12.2001V9.9601C50.7133 9.93343 52.18 9.63343 53.26 9.0601C54.3533 8.48676 54.9 7.7001 54.9 6.7001V6.3801H48.86V4.1601H57.48V6.1601ZM55.8 12.6201C57.7733 12.6201 59.3467 12.8868 60.52 13.4201C61.6933 13.9534 62.28 14.8201 62.28 16.0201C62.28 17.2068 61.6933 18.0668 60.52 18.6001C59.3467 19.1334 57.7733 19.4001 55.8 19.4001C53.8267 19.4001 52.2533 19.1334 51.08 18.6001C49.9067 18.0668 49.32 17.2068 49.32 16.0201C49.32 14.8201 49.9067 13.9534 51.08 13.4201C52.2533 12.8868 53.8267 12.6201 55.8 12.6201ZM55.8 17.2601C56.9333 17.2601 57.84 17.1601 58.52 16.9601C59.2133 16.7601 59.56 16.4468 59.56 16.0201C59.56 15.5934 59.2133 15.2801 58.52 15.0801C57.8267 14.8668 56.92 14.7601 55.8 14.7601C54.6667 14.7601 53.7533 14.8668 53.06 15.0801C52.3667 15.2801 52.02 15.5934 52.02 16.0201C52.02 16.4468 52.3667 16.7601 53.06 16.9601C53.7533 17.1601 54.6667 17.2601 55.8 17.2601ZM75.9579 3.9201H78.4779V15.8601H75.9579V15.2601H71.9779V13.4001H75.9579V3.9201ZM69.6179 10.0001C68.2712 10.0001 67.1912 9.73343 66.3779 9.2001C65.5646 8.66676 65.1579 7.9001 65.1579 6.9001C65.1579 5.91343 65.5646 5.15343 66.3779 4.6201C67.1912 4.08676 68.2712 3.8201 69.6179 3.8201C70.9512 3.8201 72.0179 4.08676 72.8179 4.6201C73.6312 5.15343 74.0379 5.91343 74.0379 6.9001C74.0379 7.88676 73.6312 8.65343 72.8179 9.2001C72.0179 9.73343 70.9512 10.0001 69.6179 10.0001ZM69.6179 5.7801C69.0046 5.7801 68.5179 5.8801 68.1579 6.0801C67.7979 6.26676 67.6179 6.5401 67.6179 6.9001C67.6179 7.27343 67.7979 7.55343 68.1579 7.7401C68.5179 7.92676 69.0046 8.0201 69.6179 8.0201C70.2179 8.0201 70.6912 7.92676 71.0379 7.7401C71.3979 7.55343 71.5779 7.27343 71.5779 6.9001C71.5779 6.5401 71.3979 6.26676 71.0379 6.0801C70.6912 5.8801 70.2179 5.7801 69.6179 5.7801ZM64.3979 12.7601V10.6801H70.9179C72.8112 10.6801 74.1712 10.4868 74.9979 10.1001V12.1801C74.1579 12.5668 72.6846 12.7601 70.5779 12.7601V15.2201H68.0579V12.7601H64.3979ZM78.7379 19.2201H65.5979V14.4001H68.1379V16.9801H78.7379V19.2201ZM87.2309 15.4201L85.9509 18.6001H83.1909L89.1709 4.6001H91.8109L97.8109 18.6001H94.9909L93.7109 15.4201H87.2309ZM90.4909 7.4001L88.0909 13.2601H92.8509L90.4909 7.4001ZM101.477 4.6001V18.6001H98.797V4.6001H101.477ZM107.092 6.7401V4.8801H109.772V3.6601H112.272V4.8801H114.832V6.7401H107.092ZM119.492 12.0801V3.9201H121.792V12.0801H119.492ZM115.992 3.9801H118.272V11.9201H115.992V9.4801H114.812V7.3001H115.992V3.9801ZM114.532 9.6601C114.532 10.4201 114.205 11.0201 113.552 11.4601C112.898 11.8868 112.058 12.1001 111.032 12.1001C110.005 12.1001 109.165 11.8868 108.512 11.4601C107.872 11.0334 107.552 10.4334 107.552 9.6601C107.552 8.88676 107.872 8.28676 108.512 7.8601C109.165 7.4201 110.005 7.2001 111.032 7.2001C112.058 7.2001 112.898 7.4201 113.552 7.8601C114.205 8.28676 114.532 8.88676 114.532 9.6601ZM109.712 9.6601C109.712 9.88676 109.832 10.0734 110.072 10.2201C110.325 10.3534 110.645 10.4201 111.032 10.4201C111.418 10.4201 111.732 10.3534 111.972 10.2201C112.225 10.0734 112.352 9.88676 112.352 9.6601C112.352 9.4201 112.232 9.23343 111.992 9.1001C111.752 8.95343 111.432 8.8801 111.032 8.8801C110.645 8.8801 110.325 8.95343 110.072 9.1001C109.832 9.23343 109.712 9.4201 109.712 9.6601ZM122.012 19.2201H108.432V15.2201H119.352V14.4601H108.392V12.7001H121.792V16.6801H110.872V17.4601H122.012V19.2201ZM130.489 9.5401C129.623 10.8201 128.583 11.8268 127.369 12.5601C126.156 13.2934 124.876 13.6668 123.529 13.6801V11.1601C124.516 11.1601 125.463 10.8468 126.369 10.2201C127.276 9.5801 128.043 8.71343 128.669 7.6201C129.296 6.51343 129.703 5.27343 129.889 3.9001L132.469 4.3201C132.309 5.4001 132.016 6.44676 131.589 7.4601L137.889 11.6001L136.549 13.7401L130.489 9.5401ZM137.969 16.2001V18.6801H123.249V16.2001H137.969ZM153.467 19.2801H151.107V3.9201H153.467V19.2801ZM149.747 3.9801V19.0201H147.407V12.2201H145.547C145.201 14.2068 144.474 15.7401 143.367 16.8201C142.261 17.9001 140.921 18.4534 139.347 18.4801V16.1001C140.387 16.0468 141.234 15.6801 141.887 15.0001C142.554 14.3068 143.001 13.3334 143.227 12.0801H139.347V9.7201H143.407V8.4001V6.6801H139.347V4.3401H145.787V8.3001C145.787 8.92676 145.781 9.39343 145.767 9.7001H147.407V3.9801H149.747ZM168.985 19.2801H166.465V12.3801H164.265C164.159 14.4868 163.712 16.0668 162.925 17.1201C162.152 18.1601 161.119 18.6801 159.825 18.6801C158.439 18.6801 157.345 18.0801 156.545 16.8801C155.745 15.6668 155.345 13.8468 155.345 11.4201C155.345 8.99343 155.745 7.1801 156.545 5.9801C157.345 4.76676 158.439 4.1601 159.825 4.1601C161.052 4.1601 162.052 4.6401 162.825 5.6001C163.599 6.54676 164.072 7.9801 164.245 9.9001H166.465V3.9201H168.985V19.2801ZM159.825 16.2601C160.425 16.2601 160.899 15.8801 161.245 15.1201C161.605 14.3601 161.785 13.1268 161.785 11.4201C161.785 9.72676 161.605 8.5001 161.245 7.7401C160.899 6.96676 160.425 6.5801 159.825 6.5801C159.212 6.5801 158.725 6.96676 158.365 7.7401C158.019 8.5001 157.845 9.72676 157.845 11.4201C157.845 14.6468 158.505 16.2601 159.825 16.2601Z" fill="#959AAA"/>
<path d="M56 39.6001H53.36L47.58 25.6001H50.48L54.78 36.1001L59.12 25.6001H61.8L56 39.6001ZM76.5472 38.1601C75.9205 38.6934 75.2072 39.1068 74.4072 39.4001C73.6205 39.6801 72.7805 39.8201 71.8872 39.8201C70.9005 39.8201 70.0072 39.6601 69.2072 39.3401C68.4205 39.0068 67.8005 38.5534 67.3472 37.9801C66.9072 37.4068 66.6872 36.7601 66.6872 36.0401C66.6872 35.1734 66.9339 34.4134 67.4272 33.7601C67.9339 33.0934 68.7472 32.4401 69.8672 31.8001C69.3339 31.2534 68.9472 30.7401 68.7072 30.2601C68.4805 29.7801 68.3672 29.2801 68.3672 28.7601C68.3672 27.7601 68.7472 26.9601 69.5072 26.3601C70.2672 25.7468 71.2739 25.4401 72.5272 25.4401C73.6872 25.4401 74.6139 25.7201 75.3072 26.2801C76.0139 26.8401 76.3672 27.6001 76.3672 28.5601C76.3672 29.2668 76.1405 29.9001 75.6872 30.4601C75.2472 31.0201 74.5272 31.5734 73.5272 32.1201L76.3872 34.8801C76.7339 34.2268 76.9872 33.4601 77.1472 32.5801L79.3272 33.2601C79.0605 34.5134 78.6405 35.5734 78.0672 36.4401L79.8072 38.1001L78.3072 39.8401L76.5472 38.1601ZM72.5272 27.3001C71.9939 27.3001 71.5805 27.4334 71.2872 27.7001C70.9939 27.9668 70.8472 28.3134 70.8472 28.7401C70.8472 29.0468 70.9272 29.3401 71.0872 29.6201C71.2472 29.9001 71.5605 30.2734 72.0272 30.7401C72.7872 30.3134 73.3139 29.9468 73.6072 29.6401C73.9005 29.3201 74.0472 28.9734 74.0472 28.6001C74.0472 28.2134 73.9139 27.9001 73.6472 27.6601C73.3939 27.4201 73.0205 27.3001 72.5272 27.3001ZM72.0672 37.6801C73.1872 37.6801 74.1472 37.3401 74.9472 36.6601L71.3672 33.2201C70.6205 33.6601 70.0939 34.0734 69.7872 34.4601C69.4939 34.8334 69.3472 35.2601 69.3472 35.7401C69.3472 36.3134 69.5939 36.7801 70.0872 37.1401C70.5805 37.5001 71.2405 37.6801 72.0672 37.6801ZM93.2206 39.6001H90.5806L84.8006 25.6001H87.7006L92.0006 36.1001L96.3406 25.6001H99.0206L93.2206 39.6001ZM113.955 30.4801V28.6201H116.295V26.8401H114.115V24.9801H126.955V26.8401H124.755V28.6201H127.095V30.4801H113.955ZM122.275 28.6201V26.8401H118.795V28.6201H122.275ZM127.895 33.2401H113.175V31.3001H127.895V33.2401ZM127.175 38.5601V40.2201H114.095V36.4001H124.515V35.6801H114.055V34.0401H126.995V37.8401H116.575V38.5601H127.175ZM142.153 34.3201V24.9801H144.493V28.2601H146.073V24.9201H148.433V35.7401H146.073V30.7001H144.493V34.3201H142.153ZM141.393 33.6601C140.593 34.0201 139.353 34.2001 137.673 34.2001H134.373V28.6801H138.453V27.2801H134.373V25.1601H140.793V30.6601H136.693V32.1001H137.813C139.346 32.1001 140.54 31.9268 141.393 31.5801V33.6601ZM141.693 38.1601C140.88 38.8401 139.893 39.3534 138.733 39.7001C137.573 40.0468 136.353 40.2201 135.073 40.2201V37.8401C136.033 37.8268 136.946 37.6934 137.813 37.4401C138.68 37.1734 139.406 36.8068 139.993 36.3401C140.593 35.8601 140.98 35.3001 141.153 34.6601L143.653 35.2001C143.586 35.5334 143.46 35.8934 143.273 36.2801L149.113 38.1201L148.273 40.4201L141.693 38.1601ZM169.651 34.0801H154.931V32.0601H161.031V31.0001H155.711V29.0001H158.051V26.9801H155.871V24.9801H168.711V26.9801H166.511V29.0001H168.851V31.0001H163.551V32.0601H169.651V34.0801ZM164.011 29.0001V26.9801H160.571V29.0001H164.011ZM168.751 35.0001V40.2201H155.831V35.0001H168.751ZM166.231 38.2401V37.0001H158.331V38.2401H166.231Z" fill="#959AAA"/>
</svg>
