<?xml version="1.0" encoding="utf-8"?>
<!-- Generator: Adobe Illustrator 23.0.0, SVG Export Plug-In . SVG Version: 6.00 Build 0)  -->
<svg version="1.1" id="레이어_1" xmlns="http://www.w3.org/2000/svg" xmlns:xlink="http://www.w3.org/1999/xlink" x="0px"
	 y="0px" viewBox="0 0 18 19" style="enable-background:new 0 0 18 19;" xml:space="preserve">
<style type="text/css">
	.st0{fill:#EDF0FA;}
	.st1{fill:#4473F5;}
</style>
<g>
	<path class="st0" d="M17,8.4H1V5.6c0-1.1,0.9-2,2-2h12c1.1,0,2,0.9,2,2V8.4z"/>
</g>
<path class="st1" d="M15,3.1h-1.5V1.6c0-0.3-0.2-0.5-0.5-0.5s-0.5,0.2-0.5,0.5v1.5h-7V1.6c0-0.3-0.2-0.5-0.5-0.5S4.5,1.3,4.5,1.6
	v1.5H3c-1.4,0-2.5,1.1-2.5,2.5v10c0,1.4,1.1,2.5,2.5,2.5h12c1.4,0,2.5-1.1,2.5-2.5v-10C17.5,4.2,16.4,3.1,15,3.1z M3,4.1h1.5v1.5
	c0,0.3,0.2,0.5,0.5,0.5s0.5-0.2,0.5-0.5V4.1h7v1.5c0,0.3,0.2,0.5,0.5,0.5s0.5-0.2,0.5-0.5V4.1H15c0.8,0,1.5,0.7,1.5,1.5v2.3h-15V5.6
	C1.5,4.8,2.2,4.1,3,4.1z M15,17.1H3c-0.8,0-1.5-0.7-1.5-1.5V8.9h15v6.7C16.5,16.4,15.8,17.1,15,17.1z"/>
</svg>
